SplineFontDB: 3.2
FontName: Untitled1
FullName: Untitled1
FamilyName: Untitled1
Weight: Regular
Copyright: Copyright (c) 2021, Pichau
UComments: "2021-12-26: Created with FontForge (http://fontforge.org)"
Version: 001.000
ItalicAngle: 0
UnderlinePosition: -100
UnderlineWidth: 50
Ascent: 800
Descent: 200
InvalidEm: 0
LayerCount: 2
Layer: 0 0 "Back" 1
Layer: 1 0 "Fore" 0
XUID: [1021 75 -996650749 1535]
OS2Version: 0
OS2_WeightWidthSlopeOnly: 0
OS2_UseTypoMetrics: 1
CreationTime: 1640548207
ModificationTime: 1640616414
OS2TypoAscent: 0
OS2TypoAOffset: 1
OS2TypoDescent: 0
OS2TypoDOffset: 1
OS2TypoLinegap: 0
OS2WinAscent: 0
OS2WinAOffset: 1
OS2WinDescent: 0
OS2WinDOffset: 1
HheadAscent: 0
HheadAOffset: 1
HheadDescent: 0
HheadDOffset: 1
OS2Vendor: 'PfEd'
DEI: 91125
Encoding: ISO8859-1
UnicodeInterp: none
NameList: AGL For New Fonts
DisplaySize: -48
AntiAlias: 1
FitToEm: 0
WinInfo: 0 38 13
BeginChars: 256 127

StartChar: A
Encoding: 65 65 0
Width: 1000
Flags: H
LayerCount: 2
Fore
SplineSet
875 -43.75 m 1
 875 -2.0830078125 875 39.5830078125 875 81.25 c 2
 812.5 81.25 l 2
 812.5 122.916992188 812.5 164.583007812 812.5 206.25 c 2
 750 206.25 l 1
 750 393.75 l 1
 687.5 393.75 l 1
 687.5 435.416992188 687.5 477.083007812 687.5 518.75 c 1
 625 518.75 l 2
 625 560.416992188 625 602.083007812 625 643.75 c 2
 562.5 643.75 l 1
 562.5 706.25 l 1
 437.5 706.25 l 2
 437.5 664.583007812 437.5 622.916992188 437.5 581.25 c 2
 375 581.25 l 1
 375 518.75 l 1
 312.5 518.75 l 1
 312.5 331.25 l 1
 250 331.25 l 1
 250 289.583007812 250 247.916992188 250 206.25 c 1
 187.5 206.25 l 2
 187.5 164.583007812 187.5 122.916992188 187.5 81.25 c 2
 125 81.25 l 1
 125 39.5830078125 125 -2.0830078125 125 -43.75 c 2
 250 -43.75 l 2
 250 -2.0830078125 250 39.5830078125 250 81.25 c 2
 312.5 81.25 l 1
 312.5 143.75 l 1
 750 143.75 l 1
 750 -43.75 l 1
 875 -43.75 l 1
562.5 206.25 m 1
 437.5 206.25 l 1
 437.5 268.75 l 1
 375 268.75 l 2
 375 310.416992188 375 352.083007812 375 393.75 c 1
 437.5 393.75 l 1
 437.5 435.416992188 437.5 477.083007812 437.5 518.75 c 1
 562.5 518.75 l 2
 562.5 477.083007812 562.5 435.416992188 562.5 393.75 c 2
 625 393.75 l 1
 625 352.083007812 625 310.416992188 625 268.75 c 2
 562.5 268.75 l 1
 562.5 206.25 l 1
EndSplineSet
EndChar

StartChar: exclam
Encoding: 33 33 1
Width: 1000
Flags: H
LayerCount: 2
Fore
SplineSet
562.5 -43.75 m 2
 562.5 -2.0830078125 562.5 39.5830078125 562.5 81.25 c 1
 437.5 81.25 l 2
 437.5 39.5830078125 437.5 -2.0830078125 437.5 -43.75 c 1
 562.5 -43.75 l 2
562.5 143.75 m 1
 562.5 706.25 l 1
 437.5 706.25 l 1
 437.5 143.75 l 1
 562.5 143.75 l 1
EndSplineSet
EndChar

StartChar: dollar
Encoding: 36 36 2
Width: 1000
Flags: H
LayerCount: 2
Fore
SplineSet
125 143.75 m 1
 125 81.25 l 1
 187.5 81.25 l 1
 187.5 18.75 l 1
 312.5 18.75 l 1
 312.5 -43.75 l 1
 437.5 -43.75 l 1
 437.5 -106.25 l 1
 500 -106.25 l 1
 500 -43.75 l 1
 687.5 -43.75 l 1
 687.5 18.75 l 1
 750 18.75 l 1
 750 102.083007812 750 185.416992188 750 268.75 c 1
 687.5 268.75 l 1
 687.5 331.25 l 1
 562.5 331.25 l 1
 562.5 414.583007812 562.5 497.916992188 562.5 581.25 c 1
 625 581.25 l 1
 625 518.75 l 1
 687.5 518.75 l 1
 687.5 456.25 l 1
 750 456.25 l 1
 750 497.916992188 750 539.583007812 750 581.25 c 2
 687.5 581.25 l 1
 687.5 643.75 l 1
 562.5 643.75 l 1
 562.5 706.25 l 1
 500 706.25 l 1
 500 768.75 l 1
 437.5 768.75 l 1
 437.5 706.25 l 1
 312.5 706.25 l 1
 312.5 643.75 l 1
 250 643.75 l 1
 250 581.25 l 1
 187.5 581.25 l 1
 187.5 393.75 l 1
 312.5 393.75 l 1
 312.5 331.25 l 1
 375 331.25 l 1
 375 268.75 l 1
 437.5 268.75 l 1
 437.5 81.25 l 1
 312.5 81.25 l 1
 312.5 143.75 l 1
 250 143.75 l 1
 250 206.25 l 1
 187.5 206.25 l 1
 187.5 143.75 l 1
 125 143.75 l 1
687.5 81.25 m 1
 500 81.25 l 1
 500 122.916992188 500 164.583007812 500 206.25 c 2
 562.5 206.25 l 1
 562.5 268.75 l 1
 625 268.75 l 1
 625 206.25 l 1
 687.5 206.25 l 2
 687.5 164.583007812 687.5 122.916992188 687.5 81.25 c 1
437.5 393.75 m 1
 312.5 393.75 l 1
 312.5 581.25 l 1
 437.5 581.25 l 1
 437.5 393.75 l 1
EndSplineSet
EndChar

StartChar: percent
Encoding: 37 37 3
Width: 1000
Flags: H
LayerCount: 2
Fore
SplineSet
812.5 81.25 m 1
 625 81.25 l 1
 625 18.75 l 1
 812.5 18.75 l 1
 812.5 81.25 l 1
812.5 81.25 m 1
 875 81.25 l 1
 875 164.583007812 875 247.916992188 875 331.25 c 1
 812.5 331.25 l 1
 812.5 393.75 l 1
 625 393.75 l 1
 625 331.25 l 1
 562.5 331.25 l 1
 562.5 247.916992188 562.5 164.583007812 562.5 81.25 c 1
 625 81.25 l 1
 625 268.75 l 1
 687.5 268.75 l 1
 687.5 331.25 l 1
 750 331.25 l 1
 750 268.75 l 1
 812.5 268.75 l 1
 812.5 81.25 l 1
312.5 81.25 m 1
 375 81.25 l 1
 375 143.75 l 1
 437.5 143.75 l 1
 437.5 185.416992188 437.5 227.083007812 437.5 268.75 c 1
 500 268.75 l 1
 500 331.25 l 1
 562.5 331.25 l 1
 562.5 393.75 l 1
 625 393.75 l 1
 625 435.416992188 625 477.083007812 625 518.75 c 1
 687.5 518.75 l 1
 687.5 581.25 l 1
 750 581.25 l 1
 750 643.75 l 1
 812.5 643.75 l 1
 812.5 685.416992188 812.5 727.083007812 812.5 768.75 c 2
 687.5 768.75 l 1
 687.5 706.25 l 1
 625 706.25 l 2
 625 664.583007812 625 622.916992188 625 581.25 c 2
 562.5 581.25 l 1
 562.5 518.75 l 1
 500 518.75 l 1
 500 477.083007812 500 435.416992188 500 393.75 c 1
 437.5 393.75 l 1
 437.5 331.25 l 1
 375 331.25 l 2
 375 289.583007812 375 247.916992188 375 206.25 c 2
 312.5 206.25 l 1
 312.5 143.75 l 1
 250 143.75 l 1
 250 102.083007812 250 60.4169921875 250 18.75 c 2
 312.5 18.75 l 1
 312.5 81.25 l 1
437.5 393.75 m 1
 437.5 435.416992188 437.5 477.083007812 437.5 518.75 c 1
 500 518.75 l 1
 500 581.25 l 1
 437.5 581.25 l 2
 437.5 622.916992188 437.5 664.583007812 437.5 706.25 c 2
 312.5 706.25 l 1
 312.5 768.75 l 1
 250 768.75 l 1
 250 706.25 l 1
 125 706.25 l 1
 125 664.583007812 125 622.916992188 125 581.25 c 1
 62.5 581.25 l 1
 62.5 539.583007812 62.5 497.916992188 62.5 456.25 c 2
 125 456.25 l 1
 125 393.75 l 1
 437.5 393.75 l 1
375 456.25 m 1
 187.5 456.25 l 1
 187.5 643.75 l 1
 375 643.75 l 1
 375 456.25 l 1
EndSplineSet
EndChar

StartChar: ampersand
Encoding: 38 38 4
Width: 1000
Flags: H
LayerCount: 2
Fore
SplineSet
187.5 456.25 m 1
 187.5 393.75 l 1
 250 393.75 l 1
 250 331.25 l 1
 312.5 331.25 l 1
 312.5 268.75 l 1
 250 268.75 l 1
 250 206.25 l 1
 187.5 206.25 l 1
 187.5 143.75 l 1
 125 143.75 l 1
 125 102.083007812 125 60.4169921875 125 18.75 c 2
 187.5 18.75 l 1
 187.5 -43.75 l 1
 250 -43.75 l 1
 250 -106.25 l 1
 500 -106.25 l 1
 500 -43.75 l 1
 250 -43.75 l 1
 250 143.75 l 1
 312.5 143.75 l 1
 312.5 206.25 l 1
 437.5 206.25 l 1
 437.5 143.75 l 1
 500 143.75 l 1
 500 81.25 l 1
 562.5 81.25 l 1
 562.5 18.75 l 1
 500 18.75 l 1
 500 -43.75 l 1
 687.5 -43.75 l 1
 687.5 -106.25 l 1
 812.5 -106.25 l 1
 812.5 -43.75 l 1
 750 -43.75 l 1
 750 143.75 l 1
 812.5 143.75 l 1
 812.5 206.25 l 1
 750 206.25 l 1
 750 268.75 l 1
 687.5 268.75 l 1
 687.5 227.083007812 687.5 185.416992188 687.5 143.75 c 1
 562.5 143.75 l 1
 562.5 206.25 l 1
 500 206.25 l 1
 500 268.75 l 1
 562.5 268.75 l 2
 562.5 310.416992188 562.5 352.083007812 562.5 393.75 c 1
 500 393.75 l 1
 500 331.25 l 1
 375 331.25 l 1
 375 393.75 l 1
 312.5 393.75 l 2
 312.5 435.416992188 312.5 477.083007812 312.5 518.75 c 1
 375 518.75 l 1
 375 581.25 l 1
 500 581.25 l 1
 500 518.75 l 1
 562.5 518.75 l 2
 562.5 477.083007812 562.5 435.416992188 562.5 393.75 c 2
 625 393.75 l 1
 625 581.25 l 1
 562.5 581.25 l 1
 562.5 643.75 l 1
 312.5 643.75 l 1
 312.5 581.25 l 1
 250 581.25 l 1
 250 539.583007812 250 497.916992188 250 456.25 c 1
 187.5 456.25 l 1
EndSplineSet
EndChar

StartChar: hyphen
Encoding: 45 45 5
Width: 1000
Flags: H
LayerCount: 2
Fore
SplineSet
812.5 268.75 m 1
 812.5 310.416992188 812.5 352.083007812 812.5 393.75 c 2
 187.5 393.75 l 2
 187.5 352.083007812 187.5 310.416992188 187.5 268.75 c 1
 812.5 268.75 l 1
EndSplineSet
EndChar

StartChar: a
Encoding: 97 97 6
Width: 1000
Flags: H
LayerCount: 2
Fore
SplineSet
750 81.25 m 1
 750 122.916992188 750 164.583007812 750 206.25 c 2
 687.5 206.25 l 1
 687.5 247.916992188 687.5 289.583007812 687.5 331.25 c 2
 750 331.25 l 1
 750 393.75 l 1
 687.5 393.75 l 1
 687.5 581.25 l 1
 562.5 581.25 l 1
 562.5 643.75 l 1
 375 643.75 l 1
 375 581.25 l 1
 250 581.25 l 1
 250 539.583007812 250 497.916992188 250 456.25 c 2
 312.5 456.25 l 1
 312.5 518.75 l 1
 562.5 518.75 l 1
 562.5 456.25 l 1
 500 456.25 l 1
 500 393.75 l 1
 250 393.75 l 1
 250 352.083007812 250 310.416992188 250 268.75 c 1
 187.5 268.75 l 2
 187.5 227.083007812 187.5 185.416992188 187.5 143.75 c 1
 250 143.75 l 1
 250 81.25 l 1
 750 81.25 l 1
562.5 143.75 m 1
 312.5 143.75 l 1
 312.5 331.25 l 1
 625 331.25 l 1
 625 289.583007812 625 247.916992188 625 206.25 c 2
 562.5 206.25 l 1
 562.5 143.75 l 1
EndSplineSet
EndChar

StartChar: aacute
Encoding: 225 225 7
Width: 1000
Flags: H
LayerCount: 2
Fore
SplineSet
375 581.25 m 1
 375 518.75 l 1
 500 518.75 l 2
 500 560.416992188 500 602.083007812 500 643.75 c 2
 562.5 643.75 l 2
 562.5 685.416992188 562.5 727.083007812 562.5 768.75 c 1
 437.5 768.75 l 1
 437.5 581.25 l 1
 375 581.25 l 1
750 -106.25 m 1
 750 -64.5830078125 750 -22.9169921875 750 18.75 c 2
 687.5 18.75 l 1
 687.5 60.4169921875 687.5 102.083007812 687.5 143.75 c 2
 750 143.75 l 1
 750 206.25 l 1
 687.5 206.25 l 1
 687.5 393.75 l 1
 562.5 393.75 l 1
 562.5 456.25 l 1
 375 456.25 l 1
 375 393.75 l 1
 250 393.75 l 1
 250 352.083007812 250 310.416992188 250 268.75 c 2
 375 268.75 l 1
 375 331.25 l 1
 562.5 331.25 l 1
 562.5 268.75 l 1
 500 268.75 l 1
 500 206.25 l 1
 250 206.25 l 1
 250 164.583007812 250 122.916992188 250 81.25 c 1
 187.5 81.25 l 2
 187.5 39.5830078125 187.5 -2.0830078125 187.5 -43.75 c 1
 250 -43.75 l 1
 250 -106.25 l 1
 750 -106.25 l 1
562.5 -43.75 m 1
 312.5 -43.75 l 1
 312.5 143.75 l 1
 562.5 143.75 l 1
 562.5 81.25 l 1
 625 81.25 l 1
 625 18.75 l 1
 562.5 18.75 l 1
 562.5 -43.75 l 1
EndSplineSet
EndChar

StartChar: agrave
Encoding: 224 224 8
Width: 1000
Flags: H
LayerCount: 2
Fore
SplineSet
750 -106.25 m 1
 750 -64.5830078125 750 -22.9169921875 750 18.75 c 2
 687.5 18.75 l 1
 687.5 60.4169921875 687.5 102.083007812 687.5 143.75 c 2
 750 143.75 l 1
 750 206.25 l 1
 687.5 206.25 l 1
 687.5 393.75 l 1
 562.5 393.75 l 1
 562.5 456.25 l 1
 375 456.25 l 1
 375 393.75 l 1
 250 393.75 l 1
 250 352.083007812 250 310.416992188 250 268.75 c 2
 375 268.75 l 1
 375 331.25 l 1
 562.5 331.25 l 1
 562.5 268.75 l 1
 500 268.75 l 1
 500 206.25 l 1
 250 206.25 l 1
 250 164.583007812 250 122.916992188 250 81.25 c 1
 187.5 81.25 l 2
 187.5 39.5830078125 187.5 -2.0830078125 187.5 -43.75 c 1
 250 -43.75 l 1
 250 -106.25 l 1
 750 -106.25 l 1
562.5 -43.75 m 1
 312.5 -43.75 l 1
 312.5 143.75 l 1
 562.5 143.75 l 1
 562.5 81.25 l 1
 625 81.25 l 1
 625 18.75 l 1
 562.5 18.75 l 1
 562.5 -43.75 l 1
562.5 581.25 m 1
 562.5 768.75 l 1
 437.5 768.75 l 2
 437.5 727.083007812 437.5 685.416992188 437.5 643.75 c 1
 500 643.75 l 2
 500 602.083007812 500 560.416992188 500 518.75 c 2
 625 518.75 l 1
 625 581.25 l 1
 562.5 581.25 l 1
EndSplineSet
EndChar

StartChar: atilde
Encoding: 227 227 9
Width: 1000
Flags: H
LayerCount: 2
Fore
SplineSet
187.5 643.75 m 1
 187.5 581.25 l 1
 312.5 581.25 l 1
 312.5 643.75 l 1
 437.5 643.75 l 1
 437.5 581.25 l 1
 562.5 581.25 l 1
 562.5 518.75 l 1
 625 518.75 l 1
 625 581.25 l 1
 687.5 581.25 l 1
 687.5 643.75 l 1
 750 643.75 l 1
 750 706.25 l 1
 625 706.25 l 1
 625 643.75 l 1
 500 643.75 l 1
 500 706.25 l 1
 375 706.25 l 1
 375 768.75 l 1
 312.5 768.75 l 1
 312.5 706.25 l 1
 250 706.25 l 1
 250 643.75 l 1
 187.5 643.75 l 1
750 -106.25 m 1
 750 -64.5830078125 750 -22.9169921875 750 18.75 c 2
 687.5 18.75 l 1
 687.5 60.4169921875 687.5 102.083007812 687.5 143.75 c 2
 750 143.75 l 1
 750 206.25 l 1
 687.5 206.25 l 1
 687.5 393.75 l 1
 562.5 393.75 l 1
 562.5 456.25 l 1
 375 456.25 l 1
 375 393.75 l 1
 250 393.75 l 1
 250 352.083007812 250 310.416992188 250 268.75 c 2
 375 268.75 l 1
 375 331.25 l 1
 562.5 331.25 l 1
 562.5 268.75 l 1
 500 268.75 l 1
 500 206.25 l 1
 250 206.25 l 1
 250 164.583007812 250 122.916992188 250 81.25 c 1
 187.5 81.25 l 2
 187.5 39.5830078125 187.5 -2.0830078125 187.5 -43.75 c 1
 250 -43.75 l 1
 250 -106.25 l 1
 750 -106.25 l 1
562.5 -43.75 m 1
 312.5 -43.75 l 1
 312.5 143.75 l 1
 562.5 143.75 l 1
 562.5 81.25 l 1
 625 81.25 l 1
 625 18.75 l 1
 562.5 18.75 l 1
 562.5 -43.75 l 1
EndSplineSet
EndChar

StartChar: acircumflex
Encoding: 226 226 10
Width: 1000
Flags: H
LayerCount: 2
Fore
SplineSet
187.5 581.25 m 1
 187.5 518.75 l 1
 312.5 518.75 l 1
 312.5 581.25 l 1
 375 581.25 l 1
 375 643.75 l 1
 500 643.75 l 1
 500 581.25 l 1
 562.5 581.25 l 1
 562.5 518.75 l 1
 687.5 518.75 l 1
 687.5 581.25 l 1
 625 581.25 l 1
 625 643.75 l 1
 562.5 643.75 l 1
 562.5 706.25 l 1
 500 706.25 l 1
 500 768.75 l 1
 375 768.75 l 1
 375 706.25 l 1
 312.5 706.25 l 1
 312.5 643.75 l 1
 250 643.75 l 1
 250 581.25 l 1
 187.5 581.25 l 1
750 -106.25 m 1
 750 -64.5830078125 750 -22.9169921875 750 18.75 c 2
 687.5 18.75 l 1
 687.5 60.4169921875 687.5 102.083007812 687.5 143.75 c 2
 750 143.75 l 1
 750 206.25 l 1
 687.5 206.25 l 1
 687.5 393.75 l 1
 562.5 393.75 l 1
 562.5 456.25 l 1
 375 456.25 l 1
 375 393.75 l 1
 250 393.75 l 1
 250 352.083007812 250 310.416992188 250 268.75 c 2
 375 268.75 l 1
 375 331.25 l 1
 562.5 331.25 l 1
 562.5 268.75 l 1
 500 268.75 l 1
 500 206.25 l 1
 250 206.25 l 1
 250 164.583007812 250 122.916992188 250 81.25 c 1
 187.5 81.25 l 2
 187.5 39.5830078125 187.5 -2.0830078125 187.5 -43.75 c 1
 250 -43.75 l 1
 250 -106.25 l 1
 750 -106.25 l 1
562.5 -43.75 m 1
 312.5 -43.75 l 1
 312.5 143.75 l 1
 562.5 143.75 l 1
 562.5 81.25 l 1
 625 81.25 l 1
 625 18.75 l 1
 562.5 18.75 l 1
 562.5 -43.75 l 1
EndSplineSet
EndChar

StartChar: b
Encoding: 98 98 11
Width: 1000
Flags: H
LayerCount: 2
Fore
SplineSet
625 18.75 m 1
 687.5 18.75 l 2
 687.5 60.4169921875 687.5 102.083007812 687.5 143.75 c 2
 750 143.75 l 1
 750 331.25 l 1
 687.5 331.25 l 1
 687.5 372.916992188 687.5 414.583007812 687.5 456.25 c 1
 562.5 456.25 l 1
 562.5 518.75 l 1
 375 518.75 l 1
 375 456.25 l 1
 312.5 456.25 l 1
 312.5 539.583007812 312.5 622.916992188 312.5 706.25 c 1
 187.5 706.25 l 1
 187.5 456.25 187.5 206.25 187.5 -43.75 c 1
 625 -43.75 l 1
 625 18.75 l 1
562.5 18.75 m 1
 375 18.75 l 1
 375 81.25 l 1
 312.5 81.25 l 1
 312.5 164.583007812 312.5 247.916992188 312.5 331.25 c 1
 375 331.25 l 1
 375 393.75 l 1
 562.5 393.75 l 1
 562.5 331.25 l 1
 625 331.25 l 1
 625 247.916992188 625 164.583007812 625 81.25 c 1
 562.5 81.25 l 1
 562.5 18.75 l 1
EndSplineSet
EndChar

StartChar: c
Encoding: 99 99 12
Width: 1000
Flags: H
LayerCount: 2
Fore
SplineSet
687.5 81.25 m 1
 750 81.25 l 1
 750 122.916992188 750 164.583007812 750 206.25 c 2
 687.5 206.25 l 1
 687.5 143.75 l 1
 625 143.75 l 1
 625 81.25 l 1
 437.5 81.25 l 1
 437.5 143.75 l 1
 375 143.75 l 1
 375 227.083007812 375 310.416992188 375 393.75 c 1
 437.5 393.75 l 1
 437.5 456.25 l 1
 625 456.25 l 1
 625 393.75 l 1
 750 393.75 l 1
 750 435.416992188 750 477.083007812 750 518.75 c 2
 625 518.75 l 1
 625 581.25 l 1
 437.5 581.25 l 1
 437.5 518.75 l 1
 312.5 518.75 l 1
 312.5 456.25 l 1
 250 456.25 l 1
 250 143.75 l 1
 312.5 143.75 l 1
 312.5 81.25 l 1
 375 81.25 l 1
 375 18.75 l 1
 687.5 18.75 l 1
 687.5 81.25 l 1
EndSplineSet
EndChar

StartChar: d
Encoding: 100 100 13
Width: 1000
Flags: H
LayerCount: 2
Fore
SplineSet
812.5 -43.75 m 1
 812.5 206.25 812.5 456.25 812.5 706.25 c 1
 687.5 706.25 l 1
 687.5 622.916992188 687.5 539.583007812 687.5 456.25 c 1
 625 456.25 l 1
 625 518.75 l 1
 437.5 518.75 l 1
 437.5 456.25 l 1
 312.5 456.25 l 1
 312.5 393.75 l 1
 250 393.75 l 1
 250 81.25 l 1
 312.5 81.25 l 1
 312.5 18.75 l 1
 375 18.75 l 1
 375 -43.75 l 1
 812.5 -43.75 l 1
625 18.75 m 1
 437.5 18.75 l 1
 437.5 81.25 l 1
 375 81.25 l 1
 375 393.75 l 1
 625 393.75 l 1
 625 331.25 l 1
 687.5 331.25 l 1
 687.5 247.916992188 687.5 164.583007812 687.5 81.25 c 1
 625 81.25 l 1
 625 18.75 l 1
EndSplineSet
EndChar

StartChar: e
Encoding: 101 101 14
Width: 1000
Flags: H
LayerCount: 2
Fore
SplineSet
687.5 81.25 m 1
 750 81.25 l 1
 750 122.916992188 750 164.583007812 750 206.25 c 2
 687.5 206.25 l 1
 687.5 143.75 l 1
 562.5 143.75 l 1
 562.5 81.25 l 1
 437.5 81.25 l 1
 437.5 143.75 l 1
 375 143.75 l 1
 375 206.25 l 1
 312.5 206.25 l 1
 312.5 268.75 l 1
 750 268.75 l 1
 750 456.25 l 1
 687.5 456.25 l 1
 687.5 518.75 l 1
 625 518.75 l 1
 625 581.25 l 1
 437.5 581.25 l 1
 437.5 518.75 l 1
 250 518.75 l 1
 250 477.083007812 250 435.416992188 250 393.75 c 1
 187.5 393.75 l 1
 187.5 206.25 l 1
 250 206.25 l 2
 250 164.583007812 250 122.916992188 250 81.25 c 2
 312.5 81.25 l 1
 312.5 18.75 l 1
 687.5 18.75 l 1
 687.5 81.25 l 1
625 331.25 m 2
 312.5 331.25 l 1
 312.5 393.75 l 1
 375 393.75 l 1
 375 456.25 l 1
 625 456.25 l 1
 625 414.583007812 625 372.916992188 625 331.25 c 2
EndSplineSet
EndChar

StartChar: eacute
Encoding: 233 233 15
Width: 1000
Flags: H
LayerCount: 2
Fore
SplineSet
375 581.25 m 1
 375 518.75 l 1
 500 518.75 l 2
 500 560.416992188 500 602.083007812 500 643.75 c 2
 562.5 643.75 l 1
 562.5 831.25 l 1
 500 831.25 l 1
 500 768.75 l 1
 437.5 768.75 l 1
 437.5 581.25 l 1
 375 581.25 l 1
687.5 -43.75 m 1
 750 -43.75 l 1
 750 18.75 l 1
 625 18.75 l 1
 625 -43.75 l 1
 437.5 -43.75 l 1
 437.5 18.75 l 1
 312.5 18.75 l 2
 312.5 60.4169921875 312.5 102.083007812 312.5 143.75 c 1
 750 143.75 l 1
 750 331.25 l 1
 687.5 331.25 l 1
 687.5 393.75 l 1
 625 393.75 l 1
 625 456.25 l 1
 437.5 456.25 l 1
 437.5 393.75 l 1
 250 393.75 l 1
 250 352.083007812 250 310.416992188 250 268.75 c 1
 187.5 268.75 l 1
 187.5 81.25 l 1
 250 81.25 l 2
 250 39.5830078125 250 -2.0830078125 250 -43.75 c 2
 312.5 -43.75 l 1
 312.5 -106.25 l 1
 687.5 -106.25 l 1
 687.5 -43.75 l 1
625 206.25 m 2
 312.5 206.25 l 1
 312.5 268.75 l 1
 375 268.75 l 1
 375 331.25 l 1
 625 331.25 l 1
 625 289.583007812 625 247.916992188 625 206.25 c 2
EndSplineSet
EndChar

StartChar: egrave
Encoding: 232 232 16
Width: 1000
Flags: H
LayerCount: 2
Fore
SplineSet
687.5 -43.75 m 1
 750 -43.75 l 1
 750 18.75 l 1
 625 18.75 l 1
 625 -43.75 l 1
 437.5 -43.75 l 1
 437.5 18.75 l 1
 312.5 18.75 l 2
 312.5 60.4169921875 312.5 102.083007812 312.5 143.75 c 1
 750 143.75 l 1
 750 331.25 l 1
 687.5 331.25 l 1
 687.5 393.75 l 1
 625 393.75 l 1
 625 456.25 l 1
 437.5 456.25 l 1
 437.5 393.75 l 1
 250 393.75 l 1
 250 352.083007812 250 310.416992188 250 268.75 c 1
 187.5 268.75 l 1
 187.5 81.25 l 1
 250 81.25 l 2
 250 39.5830078125 250 -2.0830078125 250 -43.75 c 2
 312.5 -43.75 l 1
 312.5 -106.25 l 1
 687.5 -106.25 l 1
 687.5 -43.75 l 1
625 206.25 m 2
 312.5 206.25 l 1
 312.5 268.75 l 1
 375 268.75 l 1
 375 331.25 l 1
 625 331.25 l 1
 625 289.583007812 625 247.916992188 625 206.25 c 2
562.5 581.25 m 1
 562.5 768.75 l 1
 437.5 768.75 l 2
 437.5 727.083007812 437.5 685.416992188 437.5 643.75 c 1
 500 643.75 l 2
 500 602.083007812 500 560.416992188 500 518.75 c 2
 625 518.75 l 1
 625 581.25 l 1
 562.5 581.25 l 1
EndSplineSet
EndChar

StartChar: ecircumflex
Encoding: 234 234 17
Width: 1000
Flags: H
LayerCount: 2
Fore
SplineSet
250 581.25 m 1
 250 518.75 l 1
 375 518.75 l 1
 375 581.25 l 1
 437.5 581.25 l 1
 437.5 643.75 l 1
 562.5 643.75 l 1
 562.5 581.25 l 1
 625 581.25 l 1
 625 518.75 l 1
 750 518.75 l 1
 750 581.25 l 1
 687.5 581.25 l 1
 687.5 643.75 l 1
 625 643.75 l 1
 625 706.25 l 1
 562.5 706.25 l 1
 562.5 768.75 l 1
 437.5 768.75 l 1
 437.5 706.25 l 1
 375 706.25 l 1
 375 643.75 l 1
 312.5 643.75 l 1
 312.5 581.25 l 1
 250 581.25 l 1
687.5 -43.75 m 1
 750 -43.75 l 1
 750 18.75 l 1
 625 18.75 l 1
 625 -43.75 l 1
 437.5 -43.75 l 1
 437.5 18.75 l 1
 312.5 18.75 l 2
 312.5 60.4169921875 312.5 102.083007812 312.5 143.75 c 1
 750 143.75 l 1
 750 331.25 l 1
 687.5 331.25 l 1
 687.5 393.75 l 1
 625 393.75 l 1
 625 456.25 l 1
 437.5 456.25 l 1
 437.5 393.75 l 1
 250 393.75 l 1
 250 352.083007812 250 310.416992188 250 268.75 c 1
 187.5 268.75 l 1
 187.5 81.25 l 1
 250 81.25 l 2
 250 39.5830078125 250 -2.0830078125 250 -43.75 c 2
 312.5 -43.75 l 1
 312.5 -106.25 l 1
 687.5 -106.25 l 1
 687.5 -43.75 l 1
625 206.25 m 2
 312.5 206.25 l 1
 312.5 268.75 l 1
 375 268.75 l 1
 375 331.25 l 1
 625 331.25 l 1
 625 289.583007812 625 247.916992188 625 206.25 c 2
EndSplineSet
EndChar

StartChar: f
Encoding: 102 102 18
Width: 1000
Flags: H
LayerCount: 2
Fore
SplineSet
500 -43.75 m 1
 500 393.75 l 1
 687.5 393.75 l 2
 687.5 435.416992188 687.5 477.083007812 687.5 518.75 c 1
 500 518.75 l 1
 500 581.25 l 1
 687.5 581.25 l 2
 687.5 622.916992188 687.5 664.583007812 687.5 706.25 c 1
 437.5 706.25 l 1
 437.5 643.75 l 1
 375 643.75 l 2
 375 602.083007812 375 560.416992188 375 518.75 c 2
 250 518.75 l 1
 250 477.083007812 250 435.416992188 250 393.75 c 2
 375 393.75 l 1
 375 -43.75 l 1
 500 -43.75 l 1
EndSplineSet
EndChar

StartChar: g
Encoding: 103 103 19
Width: 1000
Flags: H
LayerCount: 2
Fore
SplineSet
250 81.25 m 1
 250 18.75 l 1
 312.5 18.75 l 1
 312.5 -43.75 l 1
 625 -43.75 l 1
 625 18.75 l 1
 375 18.75 l 1
 375 81.25 l 1
 250 81.25 l 1
625 18.75 m 1
 687.5 18.75 l 1
 687.5 81.25 l 1
 750 81.25 l 1
 750 247.916992188 750 414.583007812 750 581.25 c 1
 687.5 581.25 l 1
 687.5 643.75 l 1
 625 643.75 l 1
 625 581.25 l 1
 562.5 581.25 l 1
 562.5 643.75 l 1
 312.5 643.75 l 1
 312.5 581.25 l 1
 250 581.25 l 1
 250 539.583007812 250 497.916992188 250 456.25 c 1
 187.5 456.25 l 1
 187.5 372.916992188 187.5 289.583007812 187.5 206.25 c 1
 250 206.25 l 1
 250 143.75 l 1
 375 143.75 l 1
 375 81.25 l 1
 500 81.25 l 1
 500 143.75 l 1
 625 143.75 l 1
 625 102.083007812 625 60.4169921875 625 18.75 c 1
625 206.25 m 1
 312.5 206.25 l 1
 312.5 518.75 l 1
 562.5 518.75 l 1
 562.5 456.25 l 1
 625 456.25 l 1
 625 372.916992188 625 289.583007812 625 206.25 c 1
EndSplineSet
EndChar

StartChar: iacute
Encoding: 237 237 20
Width: 1000
Flags: H
LayerCount: 2
Fore
SplineSet
562.5 -168.75 m 1
 562.5 393.75 l 1
 437.5 393.75 l 1
 437.5 -168.75 l 1
 562.5 -168.75 l 1
500 518.75 m 1
 562.5 518.75 l 2
 562.5 560.416992188 562.5 602.083007812 562.5 643.75 c 2
 625 643.75 l 1
 625 831.25 l 1
 562.5 831.25 l 1
 562.5 768.75 l 1
 500 768.75 l 1
 500 727.083007812 500 685.416992188 500 643.75 c 1
 437.5 643.75 l 1
 437.5 456.25 l 1
 500 456.25 l 1
 500 518.75 l 1
EndSplineSet
EndChar

StartChar: igrave
Encoding: 236 236 21
Width: 1000
Flags: H
LayerCount: 2
Fore
SplineSet
562.5 -168.75 m 1
 562.5 393.75 l 1
 437.5 393.75 l 1
 437.5 -168.75 l 1
 562.5 -168.75 l 1
562.5 456.25 m 1
 562.5 643.75 l 1
 500 643.75 l 1
 500 685.416992188 500 727.083007812 500 768.75 c 1
 437.5 768.75 l 1
 437.5 831.25 l 1
 375 831.25 l 1
 375 643.75 l 1
 437.5 643.75 l 1
 437.5 602.083007812 437.5 560.416992188 437.5 518.75 c 1
 500 518.75 l 1
 500 456.25 l 1
 562.5 456.25 l 1
EndSplineSet
EndChar

StartChar: h
Encoding: 104 104 22
Width: 1000
Flags: H
LayerCount: 2
Fore
SplineSet
750 -43.75 m 1
 750 393.75 l 1
 687.5 393.75 l 1
 687.5 435.416992188 687.5 477.083007812 687.5 518.75 c 1
 437.5 518.75 l 1
 437.5 456.25 l 1
 312.5 456.25 l 1
 312.5 539.583007812 312.5 622.916992188 312.5 706.25 c 1
 187.5 706.25 l 1
 187.5 456.25 187.5 206.25 187.5 -43.75 c 1
 312.5 -43.75 l 1
 312.5 81.25 312.5 206.25 312.5 331.25 c 1
 375 331.25 l 1
 375 393.75 l 1
 625 393.75 l 1
 625 -43.75 l 1
 750 -43.75 l 1
EndSplineSet
EndChar

StartChar: i
Encoding: 105 105 23
Width: 1000
Flags: H
LayerCount: 2
Fore
SplineSet
562.5 -43.75 m 1
 562.5 518.75 l 1
 437.5 518.75 l 1
 437.5 -43.75 l 1
 562.5 -43.75 l 1
562.5 581.25 m 2
 562.5 622.916992188 562.5 664.583007812 562.5 706.25 c 1
 437.5 706.25 l 2
 437.5 664.583007812 437.5 622.916992188 437.5 581.25 c 1
 562.5 581.25 l 2
EndSplineSet
EndChar

StartChar: j
Encoding: 106 106 24
Width: 1000
Flags: H
LayerCount: 2
Fore
SplineSet
375 -43.75 m 1
 375 -106.25 l 1
 625 -106.25 l 1
 625 581.25 l 1
 500 581.25 l 1
 500 372.916992188 500 164.583007812 500 -43.75 c 1
 375 -43.75 l 1
625 643.75 m 1
 625 685.416992188 625 727.083007812 625 768.75 c 2
 500 768.75 l 1
 500 727.083007812 500 685.416992188 500 643.75 c 2
 625 643.75 l 1
EndSplineSet
EndChar

StartChar: k
Encoding: 107 107 25
Width: 1000
Flags: H
LayerCount: 2
Fore
SplineSet
750 -43.75 m 1
 750 -2.0830078125 750 39.5830078125 750 81.25 c 2
 687.5 81.25 l 1
 687.5 143.75 l 1
 562.5 143.75 l 1
 562.5 331.25 l 1
 625 331.25 l 1
 625 393.75 l 1
 687.5 393.75 l 2
 687.5 435.416992188 687.5 477.083007812 687.5 518.75 c 1
 625 518.75 l 1
 625 456.25 l 1
 500 456.25 l 1
 500 393.75 l 1
 437.5 393.75 l 1
 437.5 331.25 l 1
 312.5 331.25 l 1
 312.5 456.25 312.5 581.25 312.5 706.25 c 1
 187.5 706.25 l 1
 187.5 456.25 187.5 206.25 187.5 -43.75 c 1
 312.5 -43.75 l 1
 312.5 143.75 l 1
 375 143.75 l 1
 375 206.25 l 1
 437.5 206.25 l 1
 437.5 143.75 l 1
 500 143.75 l 1
 500 81.25 l 1
 562.5 81.25 l 1
 562.5 18.75 l 1
 625 18.75 l 1
 625 -43.75 l 1
 750 -43.75 l 1
EndSplineSet
EndChar

StartChar: l
Encoding: 108 108 26
Width: 1000
Flags: H
LayerCount: 2
Fore
SplineSet
562.5 -43.75 m 1
 562.5 206.25 562.5 456.25 562.5 706.25 c 1
 437.5 706.25 l 1
 437.5 456.25 437.5 206.25 437.5 -43.75 c 1
 562.5 -43.75 l 1
EndSplineSet
EndChar

StartChar: m
Encoding: 109 109 27
Width: 1000
Flags: H
LayerCount: 2
Fore
SplineSet
937.5 18.75 m 1
 937.5 185.416992188 937.5 352.083007812 937.5 518.75 c 1
 875 518.75 l 1
 875 581.25 l 1
 625 581.25 l 1
 625 518.75 l 1
 500 518.75 l 1
 500 581.25 l 1
 62.5 581.25 l 1
 62.5 18.75 l 1
 187.5 18.75 l 1
 187.5 331.25 l 1
 250 331.25 l 2
 250 372.916992188 250 414.583007812 250 456.25 c 2
 437.5 456.25 l 1
 437.5 18.75 l 1
 562.5 18.75 l 1
 562.5 331.25 l 1
 625 331.25 l 1
 625 372.916992188 625 414.583007812 625 456.25 c 1
 812.5 456.25 l 1
 812.5 18.75 l 1
 937.5 18.75 l 1
EndSplineSet
EndChar

StartChar: n
Encoding: 110 110 28
Width: 1000
Flags: H
LayerCount: 2
Fore
SplineSet
750 18.75 m 1
 750 456.25 l 1
 687.5 456.25 l 1
 687.5 518.75 l 1
 625 518.75 l 1
 625 581.25 l 1
 375 581.25 l 1
 375 518.75 l 1
 312.5 518.75 l 1
 312.5 581.25 l 1
 187.5 581.25 l 1
 187.5 18.75 l 1
 312.5 18.75 l 1
 312.5 143.75 312.5 268.75 312.5 393.75 c 1
 375 393.75 l 1
 375 456.25 l 1
 562.5 456.25 l 1
 562.5 393.75 l 1
 625 393.75 l 1
 625 268.75 625 143.75 625 18.75 c 1
 750 18.75 l 1
EndSplineSet
EndChar

StartChar: o
Encoding: 111 111 29
Width: 1000
Flags: H
LayerCount: 2
Fore
SplineSet
687.5 81.25 m 1
 750 81.25 l 1
 750 122.916992188 750 164.583007812 750 206.25 c 1
 812.5 206.25 l 1
 812.5 393.75 l 1
 750 393.75 l 1
 750 456.25 l 1
 687.5 456.25 l 1
 687.5 518.75 l 1
 625 518.75 l 1
 625 581.25 l 1
 375 581.25 l 1
 375 518.75 l 1
 250 518.75 l 1
 250 477.083007812 250 435.416992188 250 393.75 c 1
 187.5 393.75 l 1
 187.5 206.25 l 1
 250 206.25 l 2
 250 164.583007812 250 122.916992188 250 81.25 c 2
 312.5 81.25 l 1
 312.5 18.75 l 1
 687.5 18.75 l 1
 687.5 81.25 l 1
562.5 81.25 m 1
 437.5 81.25 l 1
 437.5 143.75 l 1
 375 143.75 l 1
 375 206.25 l 1
 312.5 206.25 l 1
 312.5 393.75 l 1
 375 393.75 l 1
 375 456.25 l 1
 625 456.25 l 1
 625 393.75 l 1
 687.5 393.75 l 1
 687.5 310.416992188 687.5 227.083007812 687.5 143.75 c 1
 562.5 143.75 l 1
 562.5 81.25 l 1
EndSplineSet
EndChar

StartChar: quotedbl
Encoding: 34 34 30
Width: 1000
Flags: H
LayerCount: 2
Fore
SplineSet
687.5 456.25 m 1
 687.5 768.75 l 1
 562.5 768.75 l 1
 562.5 456.25 l 1
 687.5 456.25 l 1
437.5 456.25 m 1
 437.5 768.75 l 1
 312.5 768.75 l 1
 312.5 456.25 l 1
 437.5 456.25 l 1
EndSplineSet
EndChar

StartChar: quotesingle
Encoding: 39 39 31
Width: 1000
Flags: H
LayerCount: 2
Fore
SplineSet
562.5 456.25 m 1
 562.5 768.75 l 1
 437.5 768.75 l 1
 437.5 456.25 l 1
 562.5 456.25 l 1
EndSplineSet
EndChar

StartChar: plus
Encoding: 43 43 32
Width: 1000
Flags: H
LayerCount: 2
Fore
SplineSet
562.5 -43.75 m 1
 562.5 268.75 l 1
 812.5 268.75 l 1
 812.5 310.416992188 812.5 352.083007812 812.5 393.75 c 2
 562.5 393.75 l 1
 562.5 706.25 l 1
 437.5 706.25 l 1
 437.5 393.75 l 1
 187.5 393.75 l 2
 187.5 352.083007812 187.5 310.416992188 187.5 268.75 c 1
 437.5 268.75 l 1
 437.5 -43.75 l 1
 562.5 -43.75 l 1
EndSplineSet
EndChar

StartChar: asterisk
Encoding: 42 42 33
Width: 1000
Flags: H
LayerCount: 2
Fore
SplineSet
562.5 18.75 m 1
 562.5 206.25 l 1
 687.5 206.25 l 1
 687.5 143.75 l 1
 812.5 143.75 l 1
 812.5 185.416992188 812.5 227.083007812 812.5 268.75 c 2
 687.5 268.75 l 1
 687.5 331.25 l 1
 750 331.25 l 1
 750 393.75 l 1
 812.5 393.75 l 1
 812.5 435.416992188 812.5 477.083007812 812.5 518.75 c 2
 687.5 518.75 l 1
 687.5 456.25 l 1
 562.5 456.25 l 1
 562.5 643.75 l 1
 437.5 643.75 l 1
 437.5 456.25 l 1
 312.5 456.25 l 1
 312.5 518.75 l 1
 187.5 518.75 l 2
 187.5 477.083007812 187.5 435.416992188 187.5 393.75 c 1
 312.5 393.75 l 1
 312.5 352.083007812 312.5 310.416992188 312.5 268.75 c 2
 187.5 268.75 l 2
 187.5 227.083007812 187.5 185.416992188 187.5 143.75 c 1
 375 143.75 l 1
 375 206.25 l 1
 437.5 206.25 l 1
 437.5 18.75 l 1
 562.5 18.75 l 1
EndSplineSet
EndChar

StartChar: comma
Encoding: 44 44 34
Width: 1000
Flags: H
LayerCount: 2
Fore
SplineSet
500 -106.25 m 1
 562.5 -106.25 l 1
 562.5 81.25 l 1
 437.5 81.25 l 1
 437.5 -2.0830078125 437.5 -85.4169921875 437.5 -168.75 c 1
 500 -168.75 l 1
 500 -106.25 l 1
EndSplineSet
EndChar

StartChar: numbersign
Encoding: 35 35 35
Width: 1000
Flags: H
LayerCount: 2
Fore
SplineSet
687.5 -106.25 m 1
 687.5 -22.9169921875 687.5 60.4169921875 687.5 143.75 c 1
 937.5 143.75 l 1
 937.5 185.416992188 937.5 227.083007812 937.5 268.75 c 1
 687.5 268.75 l 1
 687.5 310.416992188 687.5 352.083007812 687.5 393.75 c 2
 937.5 393.75 l 1
 937.5 435.416992188 937.5 477.083007812 937.5 518.75 c 1
 687.5 518.75 l 1
 687.5 602.083007812 687.5 685.416992188 687.5 768.75 c 1
 562.5 768.75 l 1
 562.5 685.416992188 562.5 602.083007812 562.5 518.75 c 1
 437.5 518.75 l 1
 437.5 602.083007812 437.5 685.416992188 437.5 768.75 c 1
 312.5 768.75 l 1
 312.5 685.416992188 312.5 602.083007812 312.5 518.75 c 1
 62.5 518.75 l 1
 62.5 477.083007812 62.5 435.416992188 62.5 393.75 c 2
 312.5 393.75 l 1
 312.5 352.083007812 312.5 310.416992188 312.5 268.75 c 2
 62.5 268.75 l 1
 62.5 227.083007812 62.5 185.416992188 62.5 143.75 c 2
 312.5 143.75 l 1
 312.5 60.4169921875 312.5 -22.9169921875 312.5 -106.25 c 1
 437.5 -106.25 l 1
 437.5 -22.9169921875 437.5 60.4169921875 437.5 143.75 c 1
 562.5 143.75 l 1
 562.5 60.4169921875 562.5 -22.9169921875 562.5 -106.25 c 1
 687.5 -106.25 l 1
562.5 268.75 m 1
 437.5 268.75 l 2
 437.5 310.416992188 437.5 352.083007812 437.5 393.75 c 1
 562.5 393.75 l 2
 562.5 352.083007812 562.5 310.416992188 562.5 268.75 c 1
EndSplineSet
EndChar

StartChar: slash
Encoding: 47 47 36
Width: 1000
Flags: H
LayerCount: 2
Fore
SplineSet
312.5 -43.75 m 1
 375 -43.75 l 1
 375 18.75 l 1
 437.5 18.75 l 1
 437.5 60.4169921875 437.5 102.083007812 437.5 143.75 c 1
 500 143.75 l 1
 500 206.25 l 1
 562.5 206.25 l 2
 562.5 247.916992188 562.5 289.583007812 562.5 331.25 c 2
 625 331.25 l 1
 625 393.75 l 1
 687.5 393.75 l 2
 687.5 435.416992188 687.5 477.083007812 687.5 518.75 c 2
 750 518.75 l 1
 750 581.25 l 1
 812.5 581.25 l 1
 812.5 768.75 l 1
 750 768.75 l 1
 750 706.25 l 1
 687.5 706.25 l 1
 687.5 664.583007812 687.5 622.916992188 687.5 581.25 c 1
 625 581.25 l 1
 625 518.75 l 1
 562.5 518.75 l 1
 562.5 456.25 l 1
 500 456.25 l 1
 500 414.583007812 500 372.916992188 500 331.25 c 1
 437.5 331.25 l 2
 437.5 289.583007812 437.5 247.916992188 437.5 206.25 c 2
 375 206.25 l 1
 375 143.75 l 1
 312.5 143.75 l 2
 312.5 102.083007812 312.5 60.4169921875 312.5 18.75 c 2
 250 18.75 l 1
 250 -22.9169921875 250 -64.5830078125 250 -106.25 c 2
 312.5 -106.25 l 1
 312.5 -43.75 l 1
EndSplineSet
EndChar

StartChar: period
Encoding: 46 46 37
Width: 1000
Flags: H
LayerCount: 2
Fore
SplineSet
500 81.25 m 1
 562.5 81.25 l 2
 562.5 122.916992188 562.5 164.583007812 562.5 206.25 c 1
 375 206.25 l 2
 375 164.583007812 375 122.916992188 375 81.25 c 1
 437.5 81.25 l 1
 437.5 18.75 l 1
 500 18.75 l 1
 500 81.25 l 1
EndSplineSet
EndChar

StartChar: parenleft
Encoding: 40 40 38
Width: 1000
Flags: H
LayerCount: 2
Fore
SplineSet
687.5 -106.25 m 2
 687.5 -64.5830078125 687.5 -22.9169921875 687.5 18.75 c 1
 562.5 18.75 l 1
 562.5 60.4169921875 562.5 102.083007812 562.5 143.75 c 1
 500 143.75 l 1
 500 268.75 500 393.75 500 518.75 c 1
 562.5 518.75 l 2
 562.5 560.416992188 562.5 602.083007812 562.5 643.75 c 2
 687.5 643.75 l 2
 687.5 685.416992188 687.5 727.083007812 687.5 768.75 c 1
 562.5 768.75 l 1
 562.5 706.25 l 1
 437.5 706.25 l 1
 437.5 518.75 l 1
 375 518.75 l 2
 375 477.083007812 375 435.416992188 375 393.75 c 2
 312.5 393.75 l 2
 312.5 352.083007812 312.5 310.416992188 312.5 268.75 c 1
 375 268.75 l 1
 375 81.25 l 1
 437.5 81.25 l 1
 437.5 39.5830078125 437.5 -2.0830078125 437.5 -43.75 c 1
 562.5 -43.75 l 1
 562.5 -106.25 l 1
 687.5 -106.25 l 2
EndSplineSet
EndChar

StartChar: parenright
Encoding: 41 41 39
Width: 1000
Flags: H
LayerCount: 2
Fore
SplineSet
437.5 -43.75 m 1
 562.5 -43.75 l 2
 562.5 -2.0830078125 562.5 39.5830078125 562.5 81.25 c 2
 625 81.25 l 1
 625 268.75 l 1
 687.5 268.75 l 2
 687.5 310.416992188 687.5 352.083007812 687.5 393.75 c 1
 625 393.75 l 2
 625 435.416992188 625 477.083007812 625 518.75 c 2
 562.5 518.75 l 1
 562.5 706.25 l 1
 437.5 706.25 l 1
 437.5 768.75 l 1
 312.5 768.75 l 2
 312.5 727.083007812 312.5 685.416992188 312.5 643.75 c 1
 437.5 643.75 l 1
 437.5 602.083007812 437.5 560.416992188 437.5 518.75 c 1
 500 518.75 l 1
 500 393.75 500 268.75 500 143.75 c 1
 437.5 143.75 l 2
 437.5 102.083007812 437.5 60.4169921875 437.5 18.75 c 2
 312.5 18.75 l 2
 312.5 -22.9169921875 312.5 -64.5830078125 312.5 -106.25 c 1
 437.5 -106.25 l 1
 437.5 -43.75 l 1
EndSplineSet
EndChar

StartChar: zero
Encoding: 48 48 40
Width: 1000
Flags: H
LayerCount: 2
Fore
SplineSet
687.5 18.75 m 1
 750 18.75 l 1
 750 60.4169921875 750 102.083007812 750 143.75 c 1
 812.5 143.75 l 1
 812.5 268.75 812.5 393.75 812.5 518.75 c 1
 750 518.75 l 2
 750 560.416992188 750 602.083007812 750 643.75 c 2
 687.5 643.75 l 1
 687.5 706.25 l 1
 375 706.25 l 1
 375 643.75 l 1
 250 643.75 l 1
 250 560.416992188 250 477.083007812 250 393.75 c 1
 187.5 393.75 l 1
 187.5 206.25 l 1
 250 206.25 l 2
 250 164.583007812 250 122.916992188 250 81.25 c 2
 312.5 81.25 l 1
 312.5 18.75 l 1
 375 18.75 l 1
 375 -43.75 l 1
 687.5 -43.75 l 1
 687.5 18.75 l 1
562.5 18.75 m 1
 500 18.75 l 1
 500 81.25 l 1
 375 81.25 l 1
 375 268.75 l 1
 312.5 268.75 l 1
 312.5 456.25 l 1
 375 456.25 l 1
 375 518.75 l 1
 437.5 518.75 l 1
 437.5 581.25 l 1
 625 581.25 l 1
 625 539.583007812 625 497.916992188 625 456.25 c 1
 687.5 456.25 l 1
 687.5 143.75 l 1
 625 143.75 l 1
 625 81.25 l 1
 562.5 81.25 l 1
 562.5 18.75 l 1
EndSplineSet
EndChar

StartChar: one
Encoding: 49 49 41
Width: 1000
Flags: H
LayerCount: 2
Fore
SplineSet
625 -43.75 m 1
 625 643.75 l 1
 562.5 643.75 l 1
 562.5 706.25 l 1
 437.5 706.25 l 1
 437.5 643.75 l 1
 312.5 643.75 l 2
 312.5 602.083007812 312.5 560.416992188 312.5 518.75 c 1
 437.5 518.75 l 1
 437.5 581.25 l 1
 500 581.25 l 1
 500 372.916992188 500 164.583007812 500 -43.75 c 1
 625 -43.75 l 1
EndSplineSet
EndChar

StartChar: two
Encoding: 50 50 42
Width: 1000
Flags: H
LayerCount: 2
Fore
SplineSet
375 18.75 m 2
 375 60.4169921875 375 102.083007812 375 143.75 c 1
 437.5 143.75 l 1
 437.5 206.25 l 1
 500 206.25 l 1
 500 268.75 l 1
 562.5 268.75 l 1
 562.5 331.25 l 1
 687.5 331.25 l 2
 687.5 372.916992188 687.5 414.583007812 687.5 456.25 c 2
 750 456.25 l 1
 750 497.916992188 750 539.583007812 750 581.25 c 2
 687.5 581.25 l 1
 687.5 643.75 l 1
 625 643.75 l 1
 625 706.25 l 1
 375 706.25 l 1
 375 643.75 l 1
 250 643.75 l 1
 250 581.25 l 1
 187.5 581.25 l 2
 187.5 539.583007812 187.5 497.916992188 187.5 456.25 c 1
 312.5 456.25 l 1
 312.5 497.916992188 312.5 539.583007812 312.5 581.25 c 1
 625 581.25 l 1
 625 539.583007812 625 497.916992188 625 456.25 c 2
 562.5 456.25 l 1
 562.5 393.75 l 1
 500 393.75 l 1
 500 331.25 l 1
 375 331.25 l 1
 375 268.75 l 1
 312.5 268.75 l 1
 312.5 206.25 l 1
 250 206.25 l 1
 250 164.583007812 250 122.916992188 250 81.25 c 1
 187.5 81.25 l 2
 187.5 39.5830078125 187.5 -2.0830078125 187.5 -43.75 c 1
 750 -43.75 l 1
 750 18.75 l 1
 375 18.75 l 2
EndSplineSet
EndChar

StartChar: three
Encoding: 51 51 43
Width: 1000
Flags: H
LayerCount: 2
Fore
SplineSet
687.5 18.75 m 1
 750 18.75 l 1
 750 102.083007812 750 185.416992188 750 268.75 c 1
 687.5 268.75 l 1
 687.5 393.75 687.5 518.75 687.5 643.75 c 1
 625 643.75 l 1
 625 706.25 l 1
 312.5 706.25 l 1
 312.5 643.75 l 1
 250 643.75 l 1
 250 581.25 l 1
 187.5 581.25 l 2
 187.5 539.583007812 187.5 497.916992188 187.5 456.25 c 1
 312.5 456.25 l 1
 312.5 497.916992188 312.5 539.583007812 312.5 581.25 c 1
 562.5 581.25 l 1
 562.5 518.75 l 1
 625 518.75 l 1
 625 456.25 l 1
 562.5 456.25 l 1
 562.5 393.75 l 1
 375 393.75 l 2
 375 352.083007812 375 310.416992188 375 268.75 c 1
 625 268.75 l 1
 625 81.25 l 1
 562.5 81.25 l 1
 562.5 18.75 l 1
 375 18.75 l 1
 375 81.25 l 1
 312.5 81.25 l 1
 312.5 143.75 l 1
 187.5 143.75 l 2
 187.5 102.083007812 187.5 60.4169921875 187.5 18.75 c 1
 312.5 18.75 l 1
 312.5 -43.75 l 1
 687.5 -43.75 l 1
 687.5 18.75 l 1
EndSplineSet
EndChar

StartChar: four
Encoding: 52 52 44
Width: 1000
Flags: H
LayerCount: 2
Fore
SplineSet
187.5 206.25 m 1
 187.5 143.75 l 1
 250 143.75 l 1
 250 81.25 l 1
 625 81.25 l 1
 625 39.5830078125 625 -2.0830078125 625 -43.75 c 1
 687.5 -43.75 l 2
 687.5 -2.0830078125 687.5 39.5830078125 687.5 81.25 c 2
 812.5 81.25 l 1
 812.5 122.916992188 812.5 164.583007812 812.5 206.25 c 2
 687.5 206.25 l 1
 687.5 372.916992188 687.5 539.583007812 687.5 706.25 c 1
 562.5 706.25 l 1
 562.5 643.75 l 1
 500 643.75 l 1
 500 602.083007812 500 560.416992188 500 518.75 c 1
 437.5 518.75 l 1
 437.5 456.25 l 1
 375 456.25 l 2
 375 414.583007812 375 372.916992188 375 331.25 c 2
 312.5 331.25 l 1
 312.5 268.75 l 1
 250 268.75 l 1
 250 206.25 l 1
 187.5 206.25 l 1
625 206.25 m 1
 375 206.25 l 1
 375 268.75 l 1
 437.5 268.75 l 1
 437.5 331.25 l 1
 500 331.25 l 2
 500 372.916992188 500 414.583007812 500 456.25 c 2
 625 456.25 l 1
 625 372.916992188 625 289.583007812 625 206.25 c 1
EndSplineSet
EndChar

StartChar: five
Encoding: 53 53 45
Width: 1000
Flags: H
LayerCount: 2
Fore
SplineSet
625 18.75 m 1
 687.5 18.75 l 1
 687.5 81.25 l 1
 750 81.25 l 1
 750 164.583007812 750 247.916992188 750 331.25 c 1
 687.5 331.25 l 1
 687.5 393.75 l 1
 625 393.75 l 1
 625 456.25 l 1
 312.5 456.25 l 2
 312.5 497.916992188 312.5 539.583007812 312.5 581.25 c 1
 687.5 581.25 l 2
 687.5 622.916992188 687.5 664.583007812 687.5 706.25 c 1
 250 706.25 l 1
 250 643.75 l 1
 187.5 643.75 l 1
 187.5 518.75 187.5 393.75 187.5 268.75 c 1
 375 268.75 l 1
 375 331.25 l 1
 562.5 331.25 l 1
 562.5 268.75 l 1
 625 268.75 l 1
 625 81.25 l 1
 500 81.25 l 1
 500 18.75 l 1
 375 18.75 l 1
 375 81.25 l 1
 312.5 81.25 l 1
 312.5 143.75 l 1
 187.5 143.75 l 2
 187.5 102.083007812 187.5 60.4169921875 187.5 18.75 c 1
 250 18.75 l 1
 250 -43.75 l 1
 625 -43.75 l 1
 625 18.75 l 1
EndSplineSet
EndChar

StartChar: six
Encoding: 54 54 46
Width: 1000
Flags: H
LayerCount: 2
Fore
SplineSet
625 18.75 m 1
 687.5 18.75 l 1
 687.5 81.25 l 1
 750 81.25 l 1
 750 164.583007812 750 247.916992188 750 331.25 c 1
 687.5 331.25 l 1
 687.5 393.75 l 1
 625 393.75 l 1
 625 456.25 l 1
 375 456.25 l 1
 375 393.75 l 1
 312.5 393.75 l 2
 312.5 435.416992188 312.5 477.083007812 312.5 518.75 c 1
 375 518.75 l 1
 375 581.25 l 1
 625 581.25 l 1
 625 518.75 l 1
 750 518.75 l 1
 750 581.25 l 1
 687.5 581.25 l 1
 687.5 643.75 l 1
 562.5 643.75 l 1
 562.5 706.25 l 1
 375 706.25 l 1
 375 643.75 l 1
 312.5 643.75 l 1
 312.5 581.25 l 1
 250 581.25 l 1
 250 518.75 l 1
 187.5 518.75 l 1
 187.5 81.25 l 1
 250 81.25 l 1
 250 18.75 l 1
 312.5 18.75 l 1
 312.5 -43.75 l 1
 625 -43.75 l 1
 625 18.75 l 1
562.5 18.75 m 1
 375 18.75 l 1
 375 81.25 l 1
 312.5 81.25 l 1
 312.5 164.583007812 312.5 247.916992188 312.5 331.25 c 1
 625 331.25 l 1
 625 268.75 l 1
 687.5 268.75 l 1
 687.5 206.25 l 1
 625 206.25 l 2
 625 164.583007812 625 122.916992188 625 81.25 c 2
 562.5 81.25 l 1
 562.5 18.75 l 1
EndSplineSet
EndChar

StartChar: seven
Encoding: 55 55 47
Width: 1000
Flags: H
LayerCount: 2
Fore
SplineSet
500 -43.75 m 2
 500 -2.0830078125 500 39.5830078125 500 81.25 c 2
 562.5 81.25 l 1
 562.5 268.75 l 1
 625 268.75 l 1
 625 310.416992188 625 352.083007812 625 393.75 c 1
 687.5 393.75 l 2
 687.5 435.416992188 687.5 477.083007812 687.5 518.75 c 2
 750 518.75 l 1
 750 706.25 l 1
 250 706.25 l 1
 250 643.75 l 1
 187.5 643.75 l 1
 187.5 456.25 l 1
 312.5 456.25 l 1
 312.5 497.916992188 312.5 539.583007812 312.5 581.25 c 1
 375 581.25 l 1
 375 643.75 l 1
 500 643.75 l 1
 500 581.25 l 1
 562.5 581.25 l 1
 562.5 393.75 l 1
 500 393.75 l 1
 500 352.083007812 500 310.416992188 500 268.75 c 1
 437.5 268.75 l 1
 437.5 81.25 l 1
 375 81.25 l 2
 375 39.5830078125 375 -2.0830078125 375 -43.75 c 1
 500 -43.75 l 2
EndSplineSet
EndChar

StartChar: eight
Encoding: 56 56 48
Width: 1000
Flags: H
LayerCount: 2
Fore
SplineSet
187.5 518.75 m 1
 187.5 456.25 l 1
 250 456.25 l 1
 250 268.75 l 1
 187.5 268.75 l 1
 187.5 81.25 l 1
 250 81.25 l 1
 250 18.75 l 1
 312.5 18.75 l 1
 312.5 -43.75 l 1
 625 -43.75 l 1
 625 18.75 l 1
 687.5 18.75 l 1
 687.5 81.25 l 1
 562.5 81.25 l 1
 562.5 18.75 l 1
 375 18.75 l 1
 375 81.25 l 1
 312.5 81.25 l 1
 312.5 143.75 l 1
 250 143.75 l 1
 250 206.25 l 1
 312.5 206.25 l 1
 312.5 268.75 l 1
 625 268.75 l 1
 625 206.25 l 1
 687.5 206.25 l 2
 687.5 164.583007812 687.5 122.916992188 687.5 81.25 c 2
 750 81.25 l 1
 750 268.75 l 1
 687.5 268.75 l 1
 687.5 310.416992188 687.5 352.083007812 687.5 393.75 c 2
 750 393.75 l 1
 750 581.25 l 1
 687.5 581.25 l 1
 687.5 643.75 l 1
 625 643.75 l 1
 625 706.25 l 1
 312.5 706.25 l 1
 312.5 643.75 l 1
 250 643.75 l 1
 250 602.083007812 250 560.416992188 250 518.75 c 1
 187.5 518.75 l 1
562.5 393.75 m 1
 375 393.75 l 1
 375 456.25 l 1
 312.5 456.25 l 2
 312.5 497.916992188 312.5 539.583007812 312.5 581.25 c 1
 625 581.25 l 1
 625 539.583007812 625 497.916992188 625 456.25 c 2
 562.5 456.25 l 1
 562.5 393.75 l 1
EndSplineSet
EndChar

StartChar: nine
Encoding: 57 57 49
Width: 1000
Flags: H
LayerCount: 2
Fore
SplineSet
750 -43.75 m 1
 750 164.583007812 750 372.916992188 750 581.25 c 1
 687.5 581.25 l 1
 687.5 643.75 l 1
 625 643.75 l 1
 625 706.25 l 1
 375 706.25 l 1
 375 643.75 l 1
 250 643.75 l 1
 250 602.083007812 250 560.416992188 250 518.75 c 1
 187.5 518.75 l 1
 187.5 331.25 l 1
 250 331.25 l 1
 250 268.75 l 1
 312.5 268.75 l 1
 312.5 206.25 l 1
 625 206.25 l 1
 625 122.916992188 625 39.5830078125 625 -43.75 c 1
 750 -43.75 l 1
625 331.25 m 1
 375 331.25 l 1
 375 393.75 l 1
 312.5 393.75 l 2
 312.5 435.416992188 312.5 477.083007812 312.5 518.75 c 1
 375 518.75 l 1
 375 581.25 l 1
 562.5 581.25 l 1
 562.5 518.75 l 1
 625 518.75 l 1
 625 331.25 l 1
EndSplineSet
EndChar

StartChar: colon
Encoding: 58 58 50
Width: 1000
Flags: H
LayerCount: 2
Fore
SplineSet
562.5 81.25 m 2
 562.5 122.916992188 562.5 164.583007812 562.5 206.25 c 1
 375 206.25 l 2
 375 164.583007812 375 122.916992188 375 81.25 c 1
 562.5 81.25 l 2
562.5 456.25 m 1
 562.5 643.75 l 1
 437.5 643.75 l 1
 437.5 581.25 l 1
 375 581.25 l 2
 375 539.583007812 375 497.916992188 375 456.25 c 1
 562.5 456.25 l 1
EndSplineSet
EndChar

StartChar: question
Encoding: 63 63 51
Width: 1000
Flags: H
LayerCount: 2
Fore
SplineSet
562.5 -43.75 m 2
 562.5 -2.0830078125 562.5 39.5830078125 562.5 81.25 c 1
 437.5 81.25 l 2
 437.5 39.5830078125 437.5 -2.0830078125 437.5 -43.75 c 1
 562.5 -43.75 l 2
562.5 143.75 m 2
 562.5 185.416992188 562.5 227.083007812 562.5 268.75 c 2
 625 268.75 l 1
 625 331.25 l 1
 687.5 331.25 l 1
 687.5 393.75 l 1
 750 393.75 l 1
 750 581.25 l 1
 687.5 581.25 l 1
 687.5 643.75 l 1
 625 643.75 l 1
 625 706.25 l 1
 375 706.25 l 1
 375 643.75 l 1
 250 643.75 l 1
 250 456.25 l 1
 312.5 456.25 l 1
 312.5 518.75 l 1
 375 518.75 l 1
 375 581.25 l 1
 625 581.25 l 1
 625 393.75 l 1
 500 393.75 l 1
 500 331.25 l 1
 437.5 331.25 l 1
 437.5 143.75 l 1
 562.5 143.75 l 2
EndSplineSet
EndChar

StartChar: less
Encoding: 60 60 52
Width: 1000
Flags: H
LayerCount: 2
Fore
SplineSet
875 -106.25 m 1
 875 -64.5830078125 875 -22.9169921875 875 18.75 c 2
 812.5 18.75 l 1
 812.5 81.25 l 1
 687.5 81.25 l 1
 687.5 143.75 l 1
 500 143.75 l 1
 500 206.25 l 1
 375 206.25 l 1
 375 268.75 l 1
 312.5 268.75 l 1
 312.5 331.25 l 1
 437.5 331.25 l 1
 437.5 393.75 l 1
 562.5 393.75 l 1
 562.5 456.25 l 1
 687.5 456.25 l 1
 687.5 518.75 l 1
 875 518.75 l 1
 875 560.416992188 875 602.083007812 875 643.75 c 2
 687.5 643.75 l 1
 687.5 581.25 l 1
 562.5 581.25 l 1
 562.5 518.75 l 1
 437.5 518.75 l 1
 437.5 456.25 l 1
 312.5 456.25 l 1
 312.5 393.75 l 1
 187.5 393.75 l 1
 187.5 331.25 l 1
 125 331.25 l 1
 125 289.583007812 125 247.916992188 125 206.25 c 2
 250 206.25 l 1
 250 143.75 l 1
 437.5 143.75 l 1
 437.5 81.25 l 1
 500 81.25 l 1
 500 18.75 l 1
 625 18.75 l 1
 625 -43.75 l 1
 750 -43.75 l 1
 750 -106.25 l 1
 875 -106.25 l 1
EndSplineSet
EndChar

StartChar: greater
Encoding: 62 62 53
Width: 1000
Flags: H
LayerCount: 2
Fore
SplineSet
250 -43.75 m 1
 375 -43.75 l 1
 375 18.75 l 1
 500 18.75 l 1
 500 81.25 l 1
 562.5 81.25 l 1
 562.5 143.75 l 1
 750 143.75 l 1
 750 206.25 l 1
 875 206.25 l 1
 875 247.916992188 875 289.583007812 875 331.25 c 2
 812.5 331.25 l 1
 812.5 393.75 l 1
 687.5 393.75 l 1
 687.5 456.25 l 1
 562.5 456.25 l 1
 562.5 518.75 l 1
 437.5 518.75 l 1
 437.5 581.25 l 1
 312.5 581.25 l 1
 312.5 643.75 l 1
 125 643.75 l 1
 125 602.083007812 125 560.416992188 125 518.75 c 2
 312.5 518.75 l 1
 312.5 456.25 l 1
 437.5 456.25 l 1
 437.5 393.75 l 1
 562.5 393.75 l 1
 562.5 331.25 l 1
 687.5 331.25 l 1
 687.5 268.75 l 1
 625 268.75 l 1
 625 206.25 l 1
 500 206.25 l 1
 500 143.75 l 1
 312.5 143.75 l 1
 312.5 81.25 l 1
 187.5 81.25 l 1
 187.5 18.75 l 1
 125 18.75 l 1
 125 -22.9169921875 125 -64.5830078125 125 -106.25 c 2
 250 -106.25 l 1
 250 -43.75 l 1
EndSplineSet
EndChar

StartChar: equal
Encoding: 61 61 54
Width: 1000
Flags: H
LayerCount: 2
Fore
SplineSet
812.5 143.75 m 1
 812.5 185.416992188 812.5 227.083007812 812.5 268.75 c 2
 187.5 268.75 l 2
 187.5 227.083007812 187.5 185.416992188 187.5 143.75 c 1
 812.5 143.75 l 1
812.5 393.75 m 1
 812.5 435.416992188 812.5 477.083007812 812.5 518.75 c 2
 187.5 518.75 l 2
 187.5 477.083007812 187.5 435.416992188 187.5 393.75 c 1
 812.5 393.75 l 1
EndSplineSet
EndChar

StartChar: semicolon
Encoding: 59 59 55
Width: 1000
Flags: H
LayerCount: 2
Fore
SplineSet
500 81.25 m 1
 562.5 81.25 l 1
 562.5 268.75 l 1
 437.5 268.75 l 1
 437.5 185.416992188 437.5 102.083007812 437.5 18.75 c 1
 500 18.75 l 1
 500 81.25 l 1
562.5 456.25 m 1
 562.5 643.75 l 1
 437.5 643.75 l 1
 437.5 581.25 l 1
 375 581.25 l 2
 375 539.583007812 375 497.916992188 375 456.25 c 1
 562.5 456.25 l 1
EndSplineSet
EndChar

StartChar: B
Encoding: 66 66 56
Width: 1000
Flags: H
LayerCount: 2
Fore
SplineSet
750 18.75 m 1
 812.5 18.75 l 1
 812.5 60.4169921875 812.5 102.083007812 812.5 143.75 c 1
 875 143.75 l 1
 875 185.416992188 875 227.083007812 875 268.75 c 2
 812.5 268.75 l 1
 812.5 331.25 l 1
 750 331.25 l 1
 750 393.75 l 1
 812.5 393.75 l 1
 812.5 477.083007812 812.5 560.416992188 812.5 643.75 c 1
 687.5 643.75 l 1
 687.5 706.25 l 1
 187.5 706.25 l 1
 187.5 643.75 l 1
 125 643.75 l 1
 125 435.416992188 125 227.083007812 125 18.75 c 1
 187.5 18.75 l 1
 187.5 -43.75 l 1
 750 -43.75 l 1
 750 18.75 l 1
750 81.25 m 2
 250 81.25 l 1
 250 268.75 l 1
 687.5 268.75 l 1
 687.5 206.25 l 1
 750 206.25 l 1
 750 164.583007812 750 122.916992188 750 81.25 c 2
625 393.75 m 1
 312.5 393.75 l 1
 312.5 456.25 l 1
 250 456.25 l 1
 250 518.75 l 1
 312.5 518.75 l 1
 312.5 581.25 l 1
 625 581.25 l 1
 625 518.75 l 1
 687.5 518.75 l 1
 687.5 456.25 l 1
 625 456.25 l 1
 625 393.75 l 1
EndSplineSet
EndChar

StartChar: C
Encoding: 67 67 57
Width: 1000
Flags: H
LayerCount: 2
Fore
SplineSet
750 18.75 m 1
 875 18.75 l 1
 875 60.4169921875 875 102.083007812 875 143.75 c 2
 750 143.75 l 1
 750 81.25 l 1
 687.5 81.25 l 1
 687.5 18.75 l 1
 500 18.75 l 1
 500 81.25 l 1
 375 81.25 l 1
 375 143.75 l 1
 312.5 143.75 l 1
 312.5 268.75 312.5 393.75 312.5 518.75 c 1
 375 518.75 l 1
 375 581.25 l 1
 687.5 581.25 l 1
 687.5 518.75 l 1
 750 518.75 l 1
 750 456.25 l 1
 875 456.25 l 1
 875 497.916992188 875 539.583007812 875 581.25 c 2
 812.5 581.25 l 1
 812.5 643.75 l 1
 687.5 643.75 l 1
 687.5 706.25 l 1
 375 706.25 l 1
 375 643.75 l 1
 250 643.75 l 1
 250 602.083007812 250 560.416992188 250 518.75 c 1
 187.5 518.75 l 2
 187.5 477.083007812 187.5 435.416992188 187.5 393.75 c 2
 125 393.75 l 1
 125 352.083007812 125 310.416992188 125 268.75 c 2
 187.5 268.75 l 1
 187.5 81.25 l 1
 250 81.25 l 1
 250 18.75 l 1
 375 18.75 l 1
 375 -43.75 l 1
 750 -43.75 l 1
 750 18.75 l 1
EndSplineSet
EndChar

StartChar: D
Encoding: 68 68 58
Width: 1000
Flags: H
LayerCount: 2
Fore
SplineSet
625 18.75 m 1
 687.5 18.75 l 1
 687.5 81.25 l 1
 750 81.25 l 1
 750 143.75 l 1
 812.5 143.75 l 1
 812.5 268.75 812.5 393.75 812.5 518.75 c 1
 750 518.75 l 1
 750 581.25 l 1
 687.5 581.25 l 1
 687.5 643.75 l 1
 562.5 643.75 l 1
 562.5 706.25 l 1
 125 706.25 l 1
 125 456.25 125 206.25 125 -43.75 c 1
 625 -43.75 l 1
 625 18.75 l 1
437.5 18.75 m 1
 312.5 18.75 l 1
 312.5 81.25 l 1
 250 81.25 l 1
 250 247.916992188 250 414.583007812 250 581.25 c 1
 562.5 581.25 l 1
 562.5 518.75 l 1
 625 518.75 l 1
 625 456.25 l 1
 687.5 456.25 l 1
 687.5 372.916992188 687.5 289.583007812 687.5 206.25 c 1
 625 206.25 l 2
 625 164.583007812 625 122.916992188 625 81.25 c 2
 437.5 81.25 l 1
 437.5 18.75 l 1
EndSplineSet
EndChar

StartChar: E
Encoding: 69 69 59
Width: 1000
Flags: H
LayerCount: 2
Fore
SplineSet
812.5 -43.75 m 1
 812.5 -2.0830078125 812.5 39.5830078125 812.5 81.25 c 2
 312.5 81.25 l 1
 312.5 268.75 l 1
 812.5 268.75 l 1
 812.5 310.416992188 812.5 352.083007812 812.5 393.75 c 2
 312.5 393.75 l 1
 312.5 581.25 l 1
 812.5 581.25 l 1
 812.5 622.916992188 812.5 664.583007812 812.5 706.25 c 2
 125 706.25 l 1
 125 18.75 l 1
 187.5 18.75 l 1
 187.5 -43.75 l 1
 812.5 -43.75 l 1
EndSplineSet
EndChar

StartChar: F
Encoding: 70 70 60
Width: 1000
Flags: H
LayerCount: 2
Fore
SplineSet
312.5 -43.75 m 1
 312.5 268.75 l 1
 812.5 268.75 l 1
 812.5 310.416992188 812.5 352.083007812 812.5 393.75 c 2
 312.5 393.75 l 1
 312.5 581.25 l 1
 812.5 581.25 l 1
 812.5 622.916992188 812.5 664.583007812 812.5 706.25 c 2
 250 706.25 l 1
 250 643.75 l 1
 187.5 643.75 l 1
 187.5 -43.75 l 1
 312.5 -43.75 l 1
EndSplineSet
EndChar

StartChar: G
Encoding: 71 71 61
Width: 1000
Flags: H
LayerCount: 2
Fore
SplineSet
625 18.75 m 1
 750 18.75 l 1
 750 -43.75 l 1
 875 -43.75 l 1
 875 81.25 875 206.25 875 331.25 c 1
 562.5 331.25 l 1
 562.5 289.583007812 562.5 247.916992188 562.5 206.25 c 2
 750 206.25 l 1
 750 143.75 l 1
 687.5 143.75 l 1
 687.5 81.25 l 1
 562.5 81.25 l 1
 562.5 18.75 l 1
 437.5 18.75 l 1
 437.5 81.25 l 1
 312.5 81.25 l 1
 312.5 143.75 l 1
 250 143.75 l 1
 250 456.25 l 1
 312.5 456.25 l 1
 312.5 518.75 l 1
 375 518.75 l 1
 375 581.25 l 1
 687.5 581.25 l 1
 687.5 518.75 l 1
 750 518.75 l 1
 750 456.25 l 1
 875 456.25 l 1
 875 497.916992188 875 539.583007812 875 581.25 c 2
 812.5 581.25 l 1
 812.5 643.75 l 1
 687.5 643.75 l 1
 687.5 706.25 l 1
 312.5 706.25 l 1
 312.5 643.75 l 1
 250 643.75 l 1
 250 581.25 l 1
 187.5 581.25 l 2
 187.5 539.583007812 187.5 497.916992188 187.5 456.25 c 2
 125 456.25 l 1
 125 143.75 l 1
 187.5 143.75 l 1
 187.5 81.25 l 1
 250 81.25 l 1
 250 18.75 l 1
 312.5 18.75 l 1
 312.5 -43.75 l 1
 625 -43.75 l 1
 625 18.75 l 1
EndSplineSet
EndChar

StartChar: H
Encoding: 72 72 62
Width: 1000
Flags: H
LayerCount: 2
Fore
SplineSet
812.5 -43.75 m 1
 812.5 206.25 812.5 456.25 812.5 706.25 c 1
 687.5 706.25 l 1
 687.5 393.75 l 1
 312.5 393.75 l 1
 312.5 456.25 l 1
 250 456.25 l 1
 250 539.583007812 250 622.916992188 250 706.25 c 1
 125 706.25 l 1
 125 456.25 125 206.25 125 -43.75 c 1
 250 -43.75 l 1
 250 268.75 l 1
 687.5 268.75 l 1
 687.5 -43.75 l 1
 812.5 -43.75 l 1
EndSplineSet
EndChar

StartChar: I
Encoding: 73 73 63
Width: 1000
Flags: H
LayerCount: 2
Fore
SplineSet
312.5 18.75 m 1
 312.5 -43.75 l 1
 625 -43.75 l 1
 625 18.75 l 1
 562.5 18.75 l 1
 562.5 227.083007812 562.5 435.416992188 562.5 643.75 c 1
 625 643.75 l 1
 625 706.25 l 1
 312.5 706.25 l 1
 312.5 643.75 l 1
 375 643.75 l 1
 375 435.416992188 375 227.083007812 375 18.75 c 1
 312.5 18.75 l 1
EndSplineSet
EndChar

StartChar: J
Encoding: 74 74 64
Width: 1000
Flags: H
LayerCount: 2
Fore
SplineSet
687.5 18.75 m 1
 750 18.75 l 1
 750 706.25 l 1
 625 706.25 l 1
 625 497.916992188 625 289.583007812 625 81.25 c 1
 500 81.25 l 1
 500 18.75 l 1
 437.5 18.75 l 1
 437.5 81.25 l 1
 312.5 81.25 l 1
 312.5 143.75 l 1
 250 143.75 l 1
 250 102.083007812 250 60.4169921875 250 18.75 c 2
 312.5 18.75 l 1
 312.5 -43.75 l 1
 687.5 -43.75 l 1
 687.5 18.75 l 1
EndSplineSet
EndChar

StartChar: K
Encoding: 75 75 65
Width: 1000
Flags: H
LayerCount: 2
Fore
SplineSet
812.5 18.75 m 1
 812.5 81.25 l 1
 750 81.25 l 1
 750 143.75 l 1
 687.5 143.75 l 1
 687.5 206.25 l 1
 625 206.25 l 1
 625 268.75 l 1
 562.5 268.75 l 1
 562.5 331.25 l 1
 500 331.25 l 1
 500 393.75 l 1
 562.5 393.75 l 1
 562.5 456.25 l 1
 625 456.25 l 1
 625 518.75 l 1
 687.5 518.75 l 1
 687.5 581.25 l 1
 812.5 581.25 l 1
 812.5 622.916992188 812.5 664.583007812 812.5 706.25 c 2
 687.5 706.25 l 1
 687.5 643.75 l 1
 625 643.75 l 1
 625 581.25 l 1
 562.5 581.25 l 1
 562.5 518.75 l 1
 500 518.75 l 1
 500 456.25 l 1
 437.5 456.25 l 1
 437.5 393.75 l 1
 312.5 393.75 l 1
 312.5 706.25 l 1
 187.5 706.25 l 1
 187.5 456.25 187.5 206.25 187.5 -43.75 c 1
 312.5 -43.75 l 1
 312.5 268.75 l 1
 500 268.75 l 1
 500 206.25 l 1
 562.5 206.25 l 1
 562.5 143.75 l 1
 625 143.75 l 1
 625 81.25 l 1
 687.5 81.25 l 1
 687.5 18.75 l 1
 750 18.75 l 1
 750 -43.75 l 1
 875 -43.75 l 1
 875 18.75 l 1
 812.5 18.75 l 1
EndSplineSet
EndChar

StartChar: L
Encoding: 76 76 66
Width: 1000
Flags: H
LayerCount: 2
Fore
SplineSet
812.5 -43.75 m 1
 812.5 -2.0830078125 812.5 39.5830078125 812.5 81.25 c 2
 562.5 81.25 l 1
 562.5 18.75 l 1
 437.5 18.75 l 1
 437.5 81.25 l 1
 312.5 81.25 l 1
 312.5 289.583007812 312.5 497.916992188 312.5 706.25 c 1
 187.5 706.25 l 1
 187.5 18.75 l 1
 250 18.75 l 1
 250 -43.75 l 1
 812.5 -43.75 l 1
437.5 81.25 m 1
 437.5 18.75 l 1
 562.5 18.75 l 1
 562.5 81.25 l 1
 437.5 81.25 l 1
EndSplineSet
EndChar

StartChar: M
Encoding: 77 77 67
Width: 1000
Flags: H
LayerCount: 2
Fore
SplineSet
937.5 -43.75 m 1
 937.5 206.25 937.5 456.25 937.5 706.25 c 1
 812.5 706.25 l 1
 812.5 643.75 l 1
 750 643.75 l 2
 750 602.083007812 750 560.416992188 750 518.75 c 2
 687.5 518.75 l 1
 687.5 477.083007812 687.5 435.416992188 687.5 393.75 c 1
 625 393.75 l 1
 625 206.25 l 1
 562.5 206.25 l 1
 562.5 143.75 l 1
 500 143.75 l 1
 500 185.416992188 500 227.083007812 500 268.75 c 1
 437.5 268.75 l 2
 437.5 310.416992188 437.5 352.083007812 437.5 393.75 c 2
 375 393.75 l 2
 375 435.416992188 375 477.083007812 375 518.75 c 2
 312.5 518.75 l 2
 312.5 560.416992188 312.5 602.083007812 312.5 643.75 c 2
 250 643.75 l 1
 250 706.25 l 1
 125 706.25 l 1
 125 456.25 125 206.25 125 -43.75 c 1
 250 -43.75 l 1
 250 393.75 l 1
 312.5 393.75 l 1
 312.5 206.25 l 1
 375 206.25 l 1
 375 164.583007812 375 122.916992188 375 81.25 c 1
 437.5 81.25 l 1
 437.5 18.75 l 1
 500 18.75 l 1
 500 -43.75 l 1
 562.5 -43.75 l 1
 562.5 18.75 l 1
 625 18.75 l 1
 625 81.25 l 1
 687.5 81.25 l 1
 687.5 268.75 l 1
 750 268.75 l 1
 750 331.25 l 1
 812.5 331.25 l 1
 812.5 206.25 812.5 81.25 812.5 -43.75 c 1
 937.5 -43.75 l 1
EndSplineSet
EndChar

StartChar: N
Encoding: 78 78 68
Width: 1000
Flags: H
LayerCount: 2
Fore
SplineSet
812.5 -43.75 m 1
 812.5 206.25 812.5 456.25 812.5 706.25 c 1
 687.5 706.25 l 1
 687.5 539.583007812 687.5 372.916992188 687.5 206.25 c 1
 625 206.25 l 1
 625 268.75 l 1
 562.5 268.75 l 1
 562.5 331.25 l 1
 500 331.25 l 1
 500 393.75 l 1
 437.5 393.75 l 1
 437.5 456.25 l 1
 375 456.25 l 2
 375 497.916992188 375 539.583007812 375 581.25 c 2
 312.5 581.25 l 1
 312.5 643.75 l 1
 250 643.75 l 1
 250 706.25 l 1
 125 706.25 l 1
 125 456.25 125 206.25 125 -43.75 c 1
 250 -43.75 l 1
 250 393.75 l 1
 375 393.75 l 1
 375 352.083007812 375 310.416992188 375 268.75 c 1
 437.5 268.75 l 1
 437.5 206.25 l 1
 500 206.25 l 1
 500 143.75 l 1
 562.5 143.75 l 1
 562.5 81.25 l 1
 625 81.25 l 1
 625 39.5830078125 625 -2.0830078125 625 -43.75 c 1
 812.5 -43.75 l 1
EndSplineSet
EndChar

StartChar: O
Encoding: 79 79 69
Width: 1000
Flags: H
LayerCount: 2
Fore
SplineSet
750 18.75 m 1
 812.5 18.75 l 1
 812.5 81.25 l 1
 875 81.25 l 1
 875 122.916992188 875 164.583007812 875 206.25 c 1
 937.5 206.25 l 1
 937.5 289.583007812 937.5 372.916992188 937.5 456.25 c 1
 875 456.25 l 2
 875 497.916992188 875 539.583007812 875 581.25 c 2
 812.5 581.25 l 1
 812.5 643.75 l 1
 750 643.75 l 1
 750 706.25 l 1
 312.5 706.25 l 1
 312.5 643.75 l 1
 250 643.75 l 1
 250 581.25 l 1
 187.5 581.25 l 1
 187.5 393.75 l 1
 125 393.75 l 1
 125 206.25 l 1
 187.5 206.25 l 1
 187.5 164.583007812 187.5 122.916992188 187.5 81.25 c 1
 250 81.25 l 1
 250 18.75 l 1
 312.5 18.75 l 1
 312.5 -43.75 l 1
 750 -43.75 l 1
 750 18.75 l 1
625 18.75 m 1
 437.5 18.75 l 1
 437.5 81.25 l 1
 312.5 81.25 l 2
 312.5 122.916992188 312.5 164.583007812 312.5 206.25 c 2
 250 206.25 l 1
 250 289.583007812 250 372.916992188 250 456.25 c 1
 312.5 456.25 l 1
 312.5 518.75 l 1
 375 518.75 l 1
 375 581.25 l 1
 687.5 581.25 l 1
 687.5 518.75 l 1
 750 518.75 l 1
 750 477.083007812 750 435.416992188 750 393.75 c 1
 812.5 393.75 l 1
 812.5 310.416992188 812.5 227.083007812 812.5 143.75 c 1
 750 143.75 l 1
 750 81.25 l 1
 625 81.25 l 1
 625 18.75 l 1
EndSplineSet
EndChar

StartChar: P
Encoding: 80 80 70
Width: 1000
Flags: H
LayerCount: 2
Fore
SplineSet
250 -43.75 m 1
 250 268.75 l 1
 750 268.75 l 1
 750 331.25 l 1
 812.5 331.25 l 1
 812.5 414.583007812 812.5 497.916992188 812.5 581.25 c 1
 750 581.25 l 1
 750 643.75 l 1
 687.5 643.75 l 1
 687.5 706.25 l 1
 187.5 706.25 l 1
 187.5 643.75 l 1
 125 643.75 l 1
 125 -43.75 l 1
 250 -43.75 l 1
437.5 331.25 m 1
 312.5 331.25 l 1
 312.5 393.75 l 1
 250 393.75 l 1
 250 456.25 l 1
 187.5 456.25 l 1
 187.5 518.75 l 1
 250 518.75 l 1
 250 581.25 l 1
 375 581.25 l 1
 375 643.75 l 1
 437.5 643.75 l 1
 437.5 581.25 l 1
 625 581.25 l 1
 625 518.75 l 1
 687.5 518.75 l 2
 687.5 477.083007812 687.5 435.416992188 687.5 393.75 c 1
 437.5 393.75 l 1
 437.5 331.25 l 1
EndSplineSet
EndChar

StartChar: Q
Encoding: 81 81 71
Width: 1000
Flags: H
LayerCount: 2
Fore
SplineSet
875 -43.75 m 1
 875 -2.0830078125 875 39.5830078125 875 81.25 c 2
 812.5 81.25 l 2
 812.5 122.916992188 812.5 164.583007812 812.5 206.25 c 1
 875 206.25 l 1
 875 247.916992188 875 289.583007812 875 331.25 c 1
 937.5 331.25 l 1
 937.5 372.916992188 937.5 414.583007812 937.5 456.25 c 1
 875 456.25 l 2
 875 497.916992188 875 539.583007812 875 581.25 c 2
 812.5 581.25 l 1
 812.5 643.75 l 1
 750 643.75 l 1
 750 706.25 l 1
 687.5 706.25 l 1
 687.5 768.75 l 1
 375 768.75 l 1
 375 706.25 l 1
 250 706.25 l 1
 250 643.75 l 1
 187.5 643.75 l 2
 187.5 602.083007812 187.5 560.416992188 187.5 518.75 c 2
 125 518.75 l 1
 125 206.25 l 1
 187.5 206.25 l 1
 187.5 143.75 l 1
 250 143.75 l 1
 250 81.25 l 1
 312.5 81.25 l 1
 312.5 18.75 l 1
 812.5 18.75 l 1
 812.5 -43.75 l 1
 875 -43.75 l 1
625 81.25 m 1
 437.5 81.25 l 2
 437.5 122.916992188 437.5 164.583007812 437.5 206.25 c 1
 562.5 206.25 l 1
 562.5 143.75 l 1
 625 143.75 l 1
 625 81.25 l 1
750 206.25 m 2
 625 206.25 l 1
 625 268.75 l 1
 375 268.75 l 1
 375 206.25 l 1
 250 206.25 l 1
 250 518.75 l 1
 312.5 518.75 l 1
 312.5 581.25 l 1
 375 581.25 l 1
 375 643.75 l 1
 687.5 643.75 l 1
 687.5 581.25 l 1
 750 581.25 l 1
 750 539.583007812 750 497.916992188 750 456.25 c 1
 812.5 456.25 l 1
 812.5 414.583007812 812.5 372.916992188 812.5 331.25 c 2
 750 331.25 l 2
 750 289.583007812 750 247.916992188 750 206.25 c 2
EndSplineSet
EndChar

StartChar: R
Encoding: 82 82 72
Width: 1000
Flags: H
LayerCount: 2
Fore
SplineSet
812.5 -43.75 m 1
 812.5 -2.0830078125 812.5 39.5830078125 812.5 81.25 c 2
 750 81.25 l 1
 750 143.75 l 1
 687.5 143.75 l 1
 687.5 185.416992188 687.5 227.083007812 687.5 268.75 c 2
 750 268.75 l 1
 750 331.25 l 1
 812.5 331.25 l 1
 812.5 643.75 l 1
 750 643.75 l 1
 750 706.25 l 1
 187.5 706.25 l 1
 187.5 643.75 l 1
 125 643.75 l 1
 125 -43.75 l 1
 250 -43.75 l 1
 250 39.5830078125 250 122.916992188 250 206.25 c 1
 375 206.25 l 1
 375 268.75 l 1
 437.5 268.75 l 1
 437.5 206.25 l 1
 562.5 206.25 l 1
 562.5 143.75 l 1
 625 143.75 l 1
 625 102.083007812 625 60.4169921875 625 18.75 c 1
 687.5 18.75 l 1
 687.5 -43.75 l 1
 812.5 -43.75 l 1
687.5 393.75 m 1
 312.5 393.75 l 1
 312.5 456.25 l 1
 250 456.25 l 1
 250 518.75 l 1
 312.5 518.75 l 1
 312.5 581.25 l 1
 625 581.25 l 1
 625 518.75 l 1
 687.5 518.75 l 2
 687.5 477.083007812 687.5 435.416992188 687.5 393.75 c 1
EndSplineSet
EndChar

StartChar: S
Encoding: 83 83 73
Width: 1000
Flags: H
LayerCount: 2
Fore
SplineSet
125 143.75 m 1
 125 81.25 l 1
 187.5 81.25 l 1
 187.5 18.75 l 1
 312.5 18.75 l 1
 312.5 -43.75 l 1
 750 -43.75 l 1
 750 18.75 l 1
 812.5 18.75 l 1
 812.5 102.083007812 812.5 185.416992188 812.5 268.75 c 1
 750 268.75 l 1
 750 331.25 l 1
 562.5 331.25 l 1
 562.5 393.75 l 1
 375 393.75 l 1
 375 456.25 l 1
 312.5 456.25 l 2
 312.5 497.916992188 312.5 539.583007812 312.5 581.25 c 1
 625 581.25 l 1
 625 518.75 l 1
 750 518.75 l 1
 750 560.416992188 750 602.083007812 750 643.75 c 2
 687.5 643.75 l 1
 687.5 706.25 l 1
 250 706.25 l 1
 250 643.75 l 1
 187.5 643.75 l 1
 187.5 560.416992188 187.5 477.083007812 187.5 393.75 c 1
 250 393.75 l 1
 250 331.25 l 1
 375 331.25 l 1
 375 268.75 l 1
 625 268.75 l 1
 625 206.25 l 1
 687.5 206.25 l 2
 687.5 164.583007812 687.5 122.916992188 687.5 81.25 c 1
 562.5 81.25 l 1
 562.5 18.75 l 1
 375 18.75 l 1
 375 81.25 l 1
 312.5 81.25 l 1
 312.5 143.75 l 1
 125 143.75 l 1
EndSplineSet
EndChar

StartChar: T
Encoding: 84 84 74
Width: 1000
Flags: H
LayerCount: 2
Fore
SplineSet
625 -43.75 m 1
 625 164.583007812 625 372.916992188 625 581.25 c 1
 937.5 581.25 l 1
 937.5 622.916992188 937.5 664.583007812 937.5 706.25 c 1
 125 706.25 l 1
 125 664.583007812 125 622.916992188 125 581.25 c 2
 437.5 581.25 l 1
 437.5 518.75 l 1
 500 518.75 l 1
 500 -43.75 l 1
 625 -43.75 l 1
EndSplineSet
EndChar

StartChar: U
Encoding: 85 85 75
Width: 1000
Flags: H
LayerCount: 2
Fore
SplineSet
687.5 18.75 m 1
 750 18.75 l 1
 750 81.25 l 1
 812.5 81.25 l 1
 812.5 289.583007812 812.5 497.916992188 812.5 706.25 c 1
 687.5 706.25 l 1
 687.5 497.916992188 687.5 289.583007812 687.5 81.25 c 1
 562.5 81.25 l 1
 562.5 18.75 l 1
 437.5 18.75 l 1
 437.5 81.25 l 1
 312.5 81.25 l 1
 312.5 143.75 l 1
 250 143.75 l 1
 250 706.25 l 1
 125 706.25 l 1
 125 497.916992188 125 289.583007812 125 81.25 c 1
 187.5 81.25 l 1
 187.5 18.75 l 1
 250 18.75 l 1
 250 -43.75 l 1
 687.5 -43.75 l 1
 687.5 18.75 l 1
EndSplineSet
EndChar

StartChar: V
Encoding: 86 86 76
Width: 1000
Flags: H
LayerCount: 2
Fore
SplineSet
625 -43.75 m 1
 625 -2.0830078125 625 39.5830078125 625 81.25 c 1
 687.5 81.25 l 1
 687.5 268.75 l 1
 750 268.75 l 1
 750 331.25 l 1
 812.5 331.25 l 1
 812.5 372.916992188 812.5 414.583007812 812.5 456.25 c 1
 875 456.25 l 1
 875 497.916992188 875 539.583007812 875 581.25 c 1
 937.5 581.25 l 1
 937.5 622.916992188 937.5 664.583007812 937.5 706.25 c 1
 812.5 706.25 l 1
 812.5 643.75 l 1
 750 643.75 l 2
 750 602.083007812 750 560.416992188 750 518.75 c 2
 687.5 518.75 l 1
 687.5 331.25 l 1
 625 331.25 l 2
 625 289.583007812 625 247.916992188 625 206.25 c 2
 562.5 206.25 l 1
 562.5 143.75 l 1
 500 143.75 l 1
 500 185.416992188 500 227.083007812 500 268.75 c 1
 437.5 268.75 l 2
 437.5 310.416992188 437.5 352.083007812 437.5 393.75 c 2
 375 393.75 l 2
 375 435.416992188 375 477.083007812 375 518.75 c 2
 312.5 518.75 l 1
 312.5 706.25 l 1
 187.5 706.25 l 1
 187.5 518.75 l 1
 250 518.75 l 2
 250 477.083007812 250 435.416992188 250 393.75 c 2
 312.5 393.75 l 1
 312.5 352.083007812 312.5 310.416992188 312.5 268.75 c 1
 375 268.75 l 1
 375 227.083007812 375 185.416992188 375 143.75 c 1
 437.5 143.75 l 1
 437.5 102.083007812 437.5 60.4169921875 437.5 18.75 c 1
 500 18.75 l 1
 500 -43.75 l 1
 625 -43.75 l 1
EndSplineSet
EndChar

StartChar: W
Encoding: 87 87 77
Width: 1000
Flags: H
LayerCount: 2
Fore
SplineSet
812.5 -43.75 m 1
 812.5 143.75 l 1
 875 143.75 l 1
 875 331.25 l 1
 937.5 331.25 l 1
 937.5 456.25 937.5 581.25 937.5 706.25 c 1
 812.5 706.25 l 1
 812.5 393.75 l 1
 750 393.75 l 1
 750 206.25 l 1
 687.5 206.25 l 1
 687.5 247.916992188 687.5 289.583007812 687.5 331.25 c 1
 625 331.25 l 1
 625 414.583007812 625 497.916992188 625 581.25 c 1
 562.5 581.25 l 1
 562.5 622.916992188 562.5 664.583007812 562.5 706.25 c 1
 437.5 706.25 l 2
 437.5 664.583007812 437.5 622.916992188 437.5 581.25 c 2
 375 581.25 l 1
 375 268.75 l 1
 250 268.75 l 1
 250 456.25 l 1
 187.5 456.25 l 1
 187.5 539.583007812 187.5 622.916992188 187.5 706.25 c 1
 62.5 706.25 l 1
 62.5 622.916992188 62.5 539.583007812 62.5 456.25 c 1
 125 456.25 l 1
 125 372.916992188 125 289.583007812 125 206.25 c 1
 187.5 206.25 l 1
 187.5 18.75 l 1
 250 18.75 l 1
 250 -43.75 l 1
 375 -43.75 l 1
 375 143.75 l 1
 437.5 143.75 l 1
 437.5 331.25 l 1
 500 331.25 l 1
 500 393.75 l 1
 562.5 393.75 l 1
 562.5 310.416992188 562.5 227.083007812 562.5 143.75 c 1
 625 143.75 l 1
 625 -43.75 l 1
 812.5 -43.75 l 1
EndSplineSet
EndChar

StartChar: X
Encoding: 88 88 78
Width: 1000
Flags: H
LayerCount: 2
Fore
SplineSet
812.5 -43.75 m 1
 812.5 -2.0830078125 812.5 39.5830078125 812.5 81.25 c 2
 750 81.25 l 1
 750 143.75 l 1
 687.5 143.75 l 1
 687.5 206.25 l 1
 625 206.25 l 2
 625 247.916992188 625 289.583007812 625 331.25 c 2
 562.5 331.25 l 1
 562.5 393.75 l 1
 625 393.75 l 1
 625 456.25 l 1
 687.5 456.25 l 1
 687.5 518.75 l 1
 750 518.75 l 1
 750 581.25 l 1
 812.5 581.25 l 1
 812.5 622.916992188 812.5 664.583007812 812.5 706.25 c 2
 687.5 706.25 l 1
 687.5 643.75 l 1
 625 643.75 l 2
 625 602.083007812 625 560.416992188 625 518.75 c 2
 500 518.75 l 1
 500 456.25 l 1
 437.5 456.25 l 1
 437.5 518.75 l 1
 312.5 518.75 l 2
 312.5 560.416992188 312.5 602.083007812 312.5 643.75 c 2
 250 643.75 l 1
 250 706.25 l 1
 125 706.25 l 1
 125 664.583007812 125 622.916992188 125 581.25 c 2
 187.5 581.25 l 1
 187.5 518.75 l 1
 250 518.75 l 1
 250 456.25 l 1
 312.5 456.25 l 1
 312.5 393.75 l 1
 375 393.75 l 1
 375 352.083007812 375 310.416992188 375 268.75 c 2
 312.5 268.75 l 1
 312.5 206.25 l 1
 250 206.25 l 1
 250 143.75 l 1
 187.5 143.75 l 1
 187.5 81.25 l 1
 125 81.25 l 1
 125 39.5830078125 125 -2.0830078125 125 -43.75 c 2
 250 -43.75 l 1
 250 18.75 l 1
 312.5 18.75 l 1
 312.5 60.4169921875 312.5 102.083007812 312.5 143.75 c 1
 375 143.75 l 1
 375 206.25 l 1
 562.5 206.25 l 1
 562.5 143.75 l 1
 625 143.75 l 1
 625 81.25 l 1
 687.5 81.25 l 2
 687.5 39.5830078125 687.5 -2.0830078125 687.5 -43.75 c 2
 812.5 -43.75 l 1
EndSplineSet
EndChar

StartChar: Y
Encoding: 89 89 79
Width: 1000
Flags: H
LayerCount: 2
Fore
SplineSet
562.5 -43.75 m 1
 562.5 268.75 l 1
 625 268.75 l 1
 625 310.416992188 625 352.083007812 625 393.75 c 1
 687.5 393.75 l 1
 687.5 456.25 l 1
 750 456.25 l 1
 750 518.75 l 1
 812.5 518.75 l 1
 812.5 581.25 l 1
 875 581.25 l 1
 875 622.916992188 875 664.583007812 875 706.25 c 2
 750 706.25 l 1
 750 643.75 l 1
 687.5 643.75 l 1
 687.5 602.083007812 687.5 560.416992188 687.5 518.75 c 1
 625 518.75 l 1
 625 456.25 l 1
 562.5 456.25 l 1
 562.5 393.75 l 1
 437.5 393.75 l 1
 437.5 456.25 l 1
 375 456.25 l 1
 375 518.75 l 1
 312.5 518.75 l 2
 312.5 560.416992188 312.5 602.083007812 312.5 643.75 c 2
 250 643.75 l 1
 250 706.25 l 1
 125 706.25 l 1
 125 664.583007812 125 622.916992188 125 581.25 c 2
 187.5 581.25 l 1
 187.5 518.75 l 1
 250 518.75 l 1
 250 456.25 l 1
 312.5 456.25 l 1
 312.5 393.75 l 1
 375 393.75 l 1
 375 331.25 l 1
 437.5 331.25 l 1
 437.5 206.25 437.5 81.25 437.5 -43.75 c 1
 562.5 -43.75 l 1
EndSplineSet
EndChar

StartChar: Z
Encoding: 90 90 80
Width: 1000
Flags: H
LayerCount: 2
Fore
SplineSet
812.5 -43.75 m 1
 812.5 -2.0830078125 812.5 39.5830078125 812.5 81.25 c 2
 312.5 81.25 l 1
 312.5 143.75 l 1
 375 143.75 l 1
 375 206.25 l 1
 437.5 206.25 l 1
 437.5 268.75 l 1
 500 268.75 l 1
 500 331.25 l 1
 562.5 331.25 l 1
 562.5 393.75 l 1
 625 393.75 l 1
 625 456.25 l 1
 687.5 456.25 l 1
 687.5 518.75 l 1
 750 518.75 l 1
 750 706.25 l 1
 187.5 706.25 l 2
 187.5 664.583007812 187.5 622.916992188 187.5 581.25 c 1
 500 581.25 l 2
 500 539.583007812 500 497.916992188 500 456.25 c 1
 437.5 456.25 l 1
 437.5 393.75 l 1
 375 393.75 l 1
 375 331.25 l 1
 312.5 331.25 l 1
 312.5 268.75 l 1
 250 268.75 l 1
 250 206.25 l 1
 187.5 206.25 l 2
 187.5 164.583007812 187.5 122.916992188 187.5 81.25 c 2
 125 81.25 l 1
 125 39.5830078125 125 -2.0830078125 125 -43.75 c 2
 812.5 -43.75 l 1
EndSplineSet
EndChar

StartChar: p
Encoding: 112 112 81
Width: 1000
Flags: H
LayerCount: 2
Fore
SplineSet
312.5 -43.75 m 1
 312.5 -2.0830078125 312.5 39.5830078125 312.5 81.25 c 1
 625 81.25 l 1
 625 143.75 l 1
 687.5 143.75 l 1
 687.5 206.25 l 1
 750 206.25 l 1
 750 518.75 l 1
 687.5 518.75 l 1
 687.5 581.25 l 1
 625 581.25 l 1
 625 643.75 l 1
 187.5 643.75 l 1
 187.5 -43.75 l 1
 312.5 -43.75 l 1
625 206.25 m 1
 312.5 206.25 l 1
 312.5 289.583007812 312.5 372.916992188 312.5 456.25 c 1
 375 456.25 l 1
 375 518.75 l 1
 562.5 518.75 l 1
 562.5 456.25 l 1
 625 456.25 l 1
 625 372.916992188 625 289.583007812 625 206.25 c 1
EndSplineSet
EndChar

StartChar: q
Encoding: 113 113 82
Width: 1000
Flags: H
LayerCount: 2
Fore
SplineSet
187.5 393.75 m 1
 187.5 331.25 l 1
 250 331.25 l 2
 250 289.583007812 250 247.916992188 250 206.25 c 2
 312.5 206.25 l 1
 312.5 143.75 l 1
 375 143.75 l 1
 375 81.25 l 1
 687.5 81.25 l 2
 687.5 39.5830078125 687.5 -2.0830078125 687.5 -43.75 c 2
 750 -43.75 l 1
 750 18.75 l 1
 812.5 18.75 l 1
 812.5 81.25 l 1
 750 81.25 l 1
 750 143.75 l 1
 812.5 143.75 l 1
 812.5 206.25 l 1
 750 206.25 l 1
 750 268.75 l 1
 812.5 268.75 l 1
 812.5 581.25 l 1
 750 581.25 l 1
 750 643.75 l 1
 687.5 643.75 l 1
 687.5 581.25 l 1
 625 581.25 l 1
 625 643.75 l 1
 375 643.75 l 1
 375 581.25 l 1
 312.5 581.25 l 1
 312.5 518.75 l 1
 250 518.75 l 1
 250 477.083007812 250 435.416992188 250 393.75 c 1
 187.5 393.75 l 1
562.5 143.75 m 1
 437.5 143.75 l 1
 437.5 206.25 l 1
 375 206.25 l 2
 375 247.916992188 375 289.583007812 375 331.25 c 2
 312.5 331.25 l 1
 312.5 393.75 l 1
 375 393.75 l 1
 375 435.416992188 375 477.083007812 375 518.75 c 1
 625 518.75 l 1
 625 456.25 l 1
 687.5 456.25 l 1
 687.5 268.75 l 1
 625 268.75 l 1
 625 206.25 l 1
 562.5 206.25 l 1
 562.5 143.75 l 1
750 18.75 m 1
 750 -43.75 l 1
 812.5 -43.75 l 1
 812.5 18.75 l 1
 750 18.75 l 1
750 143.75 m 1
 750 81.25 l 1
 812.5 81.25 l 1
 812.5 143.75 l 1
 750 143.75 l 1
750 268.75 m 1
 750 206.25 l 1
 812.5 206.25 l 1
 812.5 268.75 l 1
 750 268.75 l 1
EndSplineSet
EndChar

StartChar: r
Encoding: 114 114 83
Width: 1000
Flags: H
LayerCount: 2
Fore
SplineSet
375 18.75 m 1
 375 143.75 375 268.75 375 393.75 c 1
 437.5 393.75 l 1
 437.5 456.25 l 1
 687.5 456.25 l 2
 687.5 497.916992188 687.5 539.583007812 687.5 581.25 c 1
 437.5 581.25 l 1
 437.5 518.75 l 1
 375 518.75 l 1
 375 581.25 l 1
 250 581.25 l 1
 250 18.75 l 1
 375 18.75 l 1
EndSplineSet
EndChar

StartChar: s
Encoding: 115 115 84
Width: 1000
Flags: H
LayerCount: 2
Fore
SplineSet
687.5 81.25 m 1
 750 81.25 l 1
 750 268.75 l 1
 687.5 268.75 l 1
 687.5 331.25 l 1
 500 331.25 l 1
 500 393.75 l 1
 437.5 393.75 l 1
 437.5 456.25 l 1
 625 456.25 l 1
 625 393.75 l 1
 750 393.75 l 1
 750 435.416992188 750 477.083007812 750 518.75 c 2
 625 518.75 l 1
 625 581.25 l 1
 375 581.25 l 1
 375 518.75 l 1
 312.5 518.75 l 1
 312.5 435.416992188 312.5 352.083007812 312.5 268.75 c 1
 562.5 268.75 l 1
 562.5 206.25 l 1
 625 206.25 l 1
 625 143.75 l 1
 562.5 143.75 l 1
 562.5 81.25 l 1
 437.5 81.25 l 1
 437.5 143.75 l 1
 375 143.75 l 1
 375 206.25 l 1
 250 206.25 l 1
 250 164.583007812 250 122.916992188 250 81.25 c 2
 312.5 81.25 l 1
 312.5 18.75 l 1
 687.5 18.75 l 1
 687.5 81.25 l 1
EndSplineSet
EndChar

StartChar: t
Encoding: 116 116 85
Width: 1000
Flags: H
LayerCount: 2
Fore
SplineSet
250 456.25 m 1
 250 393.75 l 1
 375 393.75 l 1
 375 268.75 375 143.75 375 18.75 c 1
 437.5 18.75 l 1
 437.5 -43.75 l 1
 687.5 -43.75 l 1
 687.5 18.75 l 1
 750 18.75 l 1
 750 81.25 l 1
 500 81.25 l 1
 500 164.583007812 500 247.916992188 500 331.25 c 1
 562.5 331.25 l 1
 562.5 393.75 l 1
 687.5 393.75 l 2
 687.5 435.416992188 687.5 477.083007812 687.5 518.75 c 1
 500 518.75 l 1
 500 560.416992188 500 602.083007812 500 643.75 c 1
 375 643.75 l 2
 375 602.083007812 375 560.416992188 375 518.75 c 2
 312.5 518.75 l 1
 312.5 456.25 l 1
 250 456.25 l 1
EndSplineSet
EndChar

StartChar: u
Encoding: 117 117 86
Width: 1000
Flags: H
LayerCount: 2
Fore
SplineSet
562.5 81.25 m 1
 625 81.25 l 1
 625 18.75 l 1
 750 18.75 l 1
 750 581.25 l 1
 625 581.25 l 1
 625 456.25 625 331.25 625 206.25 c 1
 562.5 206.25 l 1
 562.5 143.75 l 1
 500 143.75 l 1
 500 81.25 l 1
 375 81.25 l 1
 375 143.75 l 1
 312.5 143.75 l 1
 312.5 581.25 l 1
 187.5 581.25 l 1
 187.5 414.583007812 187.5 247.916992188 187.5 81.25 c 1
 250 81.25 l 1
 250 18.75 l 1
 562.5 18.75 l 1
 562.5 81.25 l 1
EndSplineSet
EndChar

StartChar: v
Encoding: 118 118 87
Width: 1000
Flags: H
LayerCount: 2
Fore
SplineSet
562.5 18.75 m 1
 562.5 206.25 l 1
 625 206.25 l 1
 625 268.75 l 1
 687.5 268.75 l 2
 687.5 310.416992188 687.5 352.083007812 687.5 393.75 c 2
 750 393.75 l 1
 750 581.25 l 1
 625 581.25 l 2
 625 539.583007812 625 497.916992188 625 456.25 c 2
 562.5 456.25 l 1
 562.5 268.75 l 1
 500 268.75 l 1
 500 206.25 l 1
 437.5 206.25 l 1
 437.5 268.75 l 1
 375 268.75 l 2
 375 310.416992188 375 352.083007812 375 393.75 c 2
 312.5 393.75 l 1
 312.5 581.25 l 1
 187.5 581.25 l 2
 187.5 539.583007812 187.5 497.916992188 187.5 456.25 c 1
 250 456.25 l 1
 250 268.75 l 1
 312.5 268.75 l 1
 312.5 227.083007812 312.5 185.416992188 312.5 143.75 c 1
 375 143.75 l 1
 375 102.083007812 375 60.4169921875 375 18.75 c 1
 562.5 18.75 l 1
EndSplineSet
EndChar

StartChar: w
Encoding: 119 119 88
Width: 1000
Flags: H
LayerCount: 2
Fore
SplineSet
750 18.75 m 1
 750 60.4169921875 750 102.083007812 750 143.75 c 1
 812.5 143.75 l 1
 812.5 331.25 l 1
 875 331.25 l 1
 875 372.916992188 875 414.583007812 875 456.25 c 1
 937.5 456.25 l 1
 937.5 497.916992188 937.5 539.583007812 937.5 581.25 c 1
 812.5 581.25 l 1
 812.5 393.75 l 1
 750 393.75 l 2
 750 352.083007812 750 310.416992188 750 268.75 c 2
 687.5 268.75 l 1
 687.5 206.25 l 1
 625 206.25 l 1
 625 393.75 l 1
 562.5 393.75 l 1
 562.5 581.25 l 1
 437.5 581.25 l 2
 437.5 539.583007812 437.5 497.916992188 437.5 456.25 c 2
 375 456.25 l 1
 375 372.916992188 375 289.583007812 375 206.25 c 1
 312.5 206.25 l 1
 312.5 268.75 l 1
 250 268.75 l 1
 250 310.416992188 250 352.083007812 250 393.75 c 1
 187.5 393.75 l 1
 187.5 581.25 l 1
 62.5 581.25 l 1
 62.5 539.583007812 62.5 497.916992188 62.5 456.25 c 2
 125 456.25 l 1
 125 268.75 l 1
 187.5 268.75 l 1
 187.5 227.083007812 187.5 185.416992188 187.5 143.75 c 1
 250 143.75 l 2
 250 102.083007812 250 60.4169921875 250 18.75 c 2
 375 18.75 l 1
 375 206.25 l 1
 437.5 206.25 l 1
 437.5 268.75 l 1
 500 268.75 l 1
 500 331.25 l 1
 562.5 331.25 l 1
 562.5 143.75 l 1
 625 143.75 l 1
 625 102.083007812 625 60.4169921875 625 18.75 c 1
 750 18.75 l 1
EndSplineSet
EndChar

StartChar: x
Encoding: 120 120 89
Width: 1000
Flags: H
LayerCount: 2
Fore
SplineSet
187.5 81.25 m 1
 187.5 18.75 l 1
 312.5 18.75 l 1
 312.5 81.25 l 1
 375 81.25 l 1
 375 122.916992188 375 164.583007812 375 206.25 c 2
 312.5 206.25 l 1
 312.5 143.75 l 1
 250 143.75 l 1
 250 81.25 l 1
 187.5 81.25 l 1
750 18.75 m 1
 750 60.4169921875 750 102.083007812 750 143.75 c 2
 687.5 143.75 l 1
 687.5 206.25 l 1
 625 206.25 l 1
 625 268.75 l 1
 562.5 268.75 l 1
 562.5 310.416992188 562.5 352.083007812 562.5 393.75 c 2
 625 393.75 l 1
 625 456.25 l 1
 750 456.25 l 1
 750 518.75 l 1
 687.5 518.75 l 1
 687.5 581.25 l 1
 625 581.25 l 1
 625 518.75 l 1
 562.5 518.75 l 1
 562.5 456.25 l 1
 500 456.25 l 1
 500 393.75 l 1
 437.5 393.75 l 1
 437.5 456.25 l 1
 375 456.25 l 1
 375 518.75 l 1
 312.5 518.75 l 1
 312.5 581.25 l 1
 250 581.25 l 1
 250 539.583007812 250 497.916992188 250 456.25 c 2
 312.5 456.25 l 1
 312.5 414.583007812 312.5 372.916992188 312.5 331.25 c 1
 375 331.25 l 1
 375 289.583007812 375 247.916992188 375 206.25 c 1
 500 206.25 l 1
 500 143.75 l 1
 562.5 143.75 l 1
 562.5 81.25 l 1
 625 81.25 l 1
 625 18.75 l 1
 750 18.75 l 1
EndSplineSet
EndChar

StartChar: y
Encoding: 121 121 90
Width: 1000
Flags: H
LayerCount: 2
Fore
SplineSet
250 81.25 m 1
 250 18.75 l 1
 312.5 18.75 l 1
 312.5 -43.75 l 1
 437.5 -43.75 l 1
 437.5 18.75 l 1
 312.5 18.75 l 1
 312.5 81.25 l 1
 250 81.25 l 1
437.5 18.75 m 1
 500 18.75 l 1
 500 81.25 l 1
 562.5 81.25 l 2
 562.5 122.916992188 562.5 164.583007812 562.5 206.25 c 2
 625 206.25 l 1
 625 247.916992188 625 289.583007812 625 331.25 c 1
 687.5 331.25 l 1
 687.5 393.75 l 1
 750 393.75 l 1
 750 435.416992188 750 477.083007812 750 518.75 c 1
 812.5 518.75 l 1
 812.5 581.25 l 1
 750 581.25 l 1
 750 643.75 l 1
 687.5 643.75 l 1
 687.5 602.083007812 687.5 560.416992188 687.5 518.75 c 1
 625 518.75 l 2
 625 477.083007812 625 435.416992188 625 393.75 c 2
 562.5 393.75 l 1
 562.5 352.083007812 562.5 310.416992188 562.5 268.75 c 1
 500 268.75 l 1
 500 331.25 l 1
 437.5 331.25 l 2
 437.5 372.916992188 437.5 414.583007812 437.5 456.25 c 2
 375 456.25 l 2
 375 497.916992188 375 539.583007812 375 581.25 c 2
 312.5 581.25 l 1
 312.5 643.75 l 1
 250 643.75 l 1
 250 602.083007812 250 560.416992188 250 518.75 c 2
 312.5 518.75 l 1
 312.5 477.083007812 312.5 435.416992188 312.5 393.75 c 1
 375 393.75 l 1
 375 352.083007812 375 310.416992188 375 268.75 c 1
 437.5 268.75 l 1
 437.5 185.416992188 437.5 102.083007812 437.5 18.75 c 1
EndSplineSet
EndChar

StartChar: z
Encoding: 122 122 91
Width: 1000
Flags: H
LayerCount: 2
Fore
SplineSet
375 81.25 m 1
 375 143.75 l 1
 437.5 143.75 l 1
 437.5 206.25 l 1
 500 206.25 l 1
 500 268.75 l 1
 562.5 268.75 l 2
 562.5 310.416992188 562.5 352.083007812 562.5 393.75 c 2
 625 393.75 l 1
 625 456.25 l 1
 687.5 456.25 l 2
 687.5 497.916992188 687.5 539.583007812 687.5 581.25 c 1
 312.5 581.25 l 2
 312.5 539.583007812 312.5 497.916992188 312.5 456.25 c 1
 500 456.25 l 2
 500 414.583007812 500 372.916992188 500 331.25 c 1
 437.5 331.25 l 1
 437.5 268.75 l 1
 375 268.75 l 1
 375 206.25 l 1
 312.5 206.25 l 1
 312.5 143.75 l 1
 250 143.75 l 1
 250 102.083007812 250 60.4169921875 250 18.75 c 2
 687.5 18.75 l 1
 687.5 81.25 l 1
 375 81.25 l 1
EndSplineSet
EndChar

StartChar: asciitilde
Encoding: 126 126 92
Width: 1000
Flags: H
LayerCount: 2
Fore
SplineSet
750 81.25 m 1
 750 122.916992188 750 164.583007812 750 206.25 c 1
 812.5 206.25 l 1
 812.5 268.75 l 1
 875 268.75 l 1
 875 456.25 l 1
 812.5 456.25 l 1
 812.5 393.75 l 1
 750 393.75 l 1
 750 331.25 l 1
 687.5 331.25 l 1
 687.5 268.75 l 1
 562.5 268.75 l 1
 562.5 331.25 l 1
 500 331.25 l 1
 500 393.75 l 1
 437.5 393.75 l 1
 437.5 456.25 l 1
 312.5 456.25 l 1
 312.5 518.75 l 1
 187.5 518.75 l 2
 187.5 477.083007812 187.5 435.416992188 187.5 393.75 c 2
 125 393.75 l 1
 125 331.25 l 1
 62.5 331.25 l 1
 62.5 143.75 l 1
 187.5 143.75 l 1
 187.5 185.416992188 187.5 227.083007812 187.5 268.75 c 1
 250 268.75 l 1
 250 331.25 l 1
 437.5 331.25 l 1
 437.5 289.583007812 437.5 247.916992188 437.5 206.25 c 1
 500 206.25 l 1
 500 143.75 l 1
 562.5 143.75 l 1
 562.5 81.25 l 1
 750 81.25 l 1
EndSplineSet
EndChar

StartChar: ccedilla
Encoding: 231 231 93
Width: 1000
Flags: H
LayerCount: 2
Fore
SplineSet
375 -106.25 m 1
 375 -168.75 l 1
 437.5 -168.75 l 1
 437.5 -106.25 l 1
 375 -106.25 l 1
437.5 -106.25 m 1
 500 -106.25 l 1
 500 -43.75 l 1
 562.5 -43.75 l 1
 562.5 18.75 l 1
 437.5 18.75 l 2
 437.5 -22.9169921875 437.5 -64.5830078125 437.5 -106.25 c 1
687.5 143.75 m 1
 750 143.75 l 1
 750 206.25 l 1
 625 206.25 l 1
 625 143.75 l 1
 437.5 143.75 l 1
 437.5 206.25 l 1
 375 206.25 l 1
 375 289.583007812 375 372.916992188 375 456.25 c 1
 437.5 456.25 l 1
 437.5 518.75 l 1
 687.5 518.75 l 1
 687.5 456.25 l 1
 750 456.25 l 1
 750 497.916992188 750 539.583007812 750 581.25 c 2
 625 581.25 l 1
 625 643.75 l 1
 437.5 643.75 l 1
 437.5 581.25 l 1
 312.5 581.25 l 1
 312.5 518.75 l 1
 250 518.75 l 1
 250 206.25 l 1
 312.5 206.25 l 1
 312.5 143.75 l 1
 375 143.75 l 1
 375 81.25 l 1
 687.5 81.25 l 1
 687.5 143.75 l 1
EndSplineSet
EndChar

StartChar: ograve
Encoding: 242 242 94
Width: 1000
Flags: H
LayerCount: 2
Fore
SplineSet
375 643.75 m 1
 375 581.25 l 1
 500 581.25 l 1
 500 643.75 l 1
 562.5 643.75 l 1
 562.5 831.25 l 1
 500 831.25 l 1
 500 768.75 l 1
 437.5 768.75 l 2
 437.5 727.083007812 437.5 685.416992188 437.5 643.75 c 2
 375 643.75 l 1
687.5 -43.75 m 1
 750 -43.75 l 1
 750 -2.0830078125 750 39.5830078125 750 81.25 c 1
 812.5 81.25 l 1
 812.5 268.75 l 1
 750 268.75 l 2
 750 310.416992188 750 352.083007812 750 393.75 c 2
 625 393.75 l 1
 625 456.25 l 1
 375 456.25 l 1
 375 393.75 l 1
 250 393.75 l 1
 250 352.083007812 250 310.416992188 250 268.75 c 1
 187.5 268.75 l 1
 187.5 81.25 l 1
 250 81.25 l 2
 250 39.5830078125 250 -2.0830078125 250 -43.75 c 2
 312.5 -43.75 l 1
 312.5 -106.25 l 1
 687.5 -106.25 l 1
 687.5 -43.75 l 1
562.5 -43.75 m 1
 437.5 -43.75 l 1
 437.5 18.75 l 1
 375 18.75 l 1
 375 81.25 l 1
 312.5 81.25 l 1
 312.5 268.75 l 1
 375 268.75 l 1
 375 331.25 l 1
 625 331.25 l 1
 625 289.583007812 625 247.916992188 625 206.25 c 1
 687.5 206.25 l 1
 687.5 18.75 l 1
 562.5 18.75 l 1
 562.5 -43.75 l 1
EndSplineSet
EndChar

StartChar: oacute
Encoding: 243 243 95
Width: 1000
Flags: H
LayerCount: 2
Fore
SplineSet
687.5 -43.75 m 1
 750 -43.75 l 1
 750 -2.0830078125 750 39.5830078125 750 81.25 c 1
 812.5 81.25 l 1
 812.5 268.75 l 1
 750 268.75 l 1
 750 331.25 l 1
 687.5 331.25 l 1
 687.5 393.75 l 1
 625 393.75 l 1
 625 456.25 l 1
 375 456.25 l 1
 375 393.75 l 1
 250 393.75 l 1
 250 352.083007812 250 310.416992188 250 268.75 c 1
 187.5 268.75 l 1
 187.5 81.25 l 1
 250 81.25 l 2
 250 39.5830078125 250 -2.0830078125 250 -43.75 c 2
 312.5 -43.75 l 1
 312.5 -106.25 l 1
 687.5 -106.25 l 1
 687.5 -43.75 l 1
562.5 -43.75 m 1
 437.5 -43.75 l 1
 437.5 18.75 l 1
 375 18.75 l 1
 375 81.25 l 1
 312.5 81.25 l 1
 312.5 268.75 l 1
 375 268.75 l 1
 375 331.25 l 1
 625 331.25 l 1
 625 268.75 l 1
 687.5 268.75 l 1
 687.5 185.416992188 687.5 102.083007812 687.5 18.75 c 1
 562.5 18.75 l 1
 562.5 -43.75 l 1
562.5 643.75 m 1
 562.5 685.416992188 562.5 727.083007812 562.5 768.75 c 1
 500 768.75 l 1
 500 831.25 l 1
 437.5 831.25 l 1
 437.5 643.75 l 1
 500 643.75 l 1
 500 581.25 l 1
 625 581.25 l 1
 625 643.75 l 1
 562.5 643.75 l 1
EndSplineSet
EndChar

StartChar: ocircumflex
Encoding: 244 244 96
Width: 1000
Flags: H
LayerCount: 2
Fore
SplineSet
250 643.75 m 1
 250 581.25 l 1
 375 581.25 l 1
 375 643.75 l 1
 437.5 643.75 l 1
 437.5 706.25 l 1
 562.5 706.25 l 1
 562.5 643.75 l 1
 625 643.75 l 1
 625 581.25 l 1
 750 581.25 l 1
 750 643.75 l 1
 687.5 643.75 l 1
 687.5 706.25 l 1
 625 706.25 l 1
 625 768.75 l 1
 562.5 768.75 l 1
 562.5 831.25 l 1
 437.5 831.25 l 1
 437.5 768.75 l 1
 375 768.75 l 1
 375 706.25 l 1
 312.5 706.25 l 1
 312.5 643.75 l 1
 250 643.75 l 1
687.5 -43.75 m 1
 750 -43.75 l 1
 750 -2.0830078125 750 39.5830078125 750 81.25 c 1
 812.5 81.25 l 1
 812.5 268.75 l 1
 750 268.75 l 2
 750 310.416992188 750 352.083007812 750 393.75 c 2
 625 393.75 l 1
 625 456.25 l 1
 375 456.25 l 1
 375 393.75 l 1
 250 393.75 l 1
 250 352.083007812 250 310.416992188 250 268.75 c 1
 187.5 268.75 l 1
 187.5 81.25 l 1
 250 81.25 l 2
 250 39.5830078125 250 -2.0830078125 250 -43.75 c 2
 312.5 -43.75 l 1
 312.5 -106.25 l 1
 687.5 -106.25 l 1
 687.5 -43.75 l 1
562.5 -43.75 m 1
 437.5 -43.75 l 1
 437.5 18.75 l 1
 375 18.75 l 1
 375 81.25 l 1
 312.5 81.25 l 1
 312.5 268.75 l 1
 375 268.75 l 1
 375 331.25 l 1
 625 331.25 l 1
 625 289.583007812 625 247.916992188 625 206.25 c 1
 687.5 206.25 l 1
 687.5 18.75 l 1
 562.5 18.75 l 1
 562.5 -43.75 l 1
EndSplineSet
EndChar

StartChar: ugrave
Encoding: 249 249 97
Width: 1000
Flags: H
LayerCount: 2
Fore
SplineSet
562.5 -43.75 m 1
 625 -43.75 l 1
 625 -106.25 l 1
 750 -106.25 l 1
 750 456.25 l 1
 625 456.25 l 1
 625 331.25 625 206.25 625 81.25 c 1
 562.5 81.25 l 1
 562.5 18.75 l 1
 500 18.75 l 1
 500 -43.75 l 1
 375 -43.75 l 1
 375 18.75 l 1
 312.5 18.75 l 1
 312.5 456.25 l 1
 187.5 456.25 l 1
 187.5 289.583007812 187.5 122.916992188 187.5 -43.75 c 1
 250 -43.75 l 1
 250 -106.25 l 1
 562.5 -106.25 l 1
 562.5 -43.75 l 1
625 456.25 m 1
 625 643.75 l 1
 562.5 643.75 l 1
 562.5 685.416992188 562.5 727.083007812 562.5 768.75 c 1
 500 768.75 l 1
 500 831.25 l 1
 437.5 831.25 l 1
 437.5 643.75 l 1
 500 643.75 l 2
 500 602.083007812 500 560.416992188 500 518.75 c 2
 562.5 518.75 l 1
 562.5 456.25 l 1
 625 456.25 l 1
EndSplineSet
EndChar

StartChar: uacute
Encoding: 250 250 98
Width: 1000
Flags: H
LayerCount: 2
Fore
SplineSet
562.5 -43.75 m 1
 625 -43.75 l 1
 625 -106.25 l 1
 750 -106.25 l 1
 750 456.25 l 1
 625 456.25 l 1
 625 331.25 625 206.25 625 81.25 c 1
 562.5 81.25 l 1
 562.5 18.75 l 1
 500 18.75 l 1
 500 -43.75 l 1
 375 -43.75 l 1
 375 18.75 l 1
 312.5 18.75 l 1
 312.5 456.25 l 1
 187.5 456.25 l 1
 187.5 289.583007812 187.5 122.916992188 187.5 -43.75 c 1
 250 -43.75 l 1
 250 -106.25 l 1
 562.5 -106.25 l 1
 562.5 -43.75 l 1
437.5 518.75 m 1
 500 518.75 l 2
 500 560.416992188 500 602.083007812 500 643.75 c 2
 562.5 643.75 l 1
 562.5 831.25 l 1
 500 831.25 l 1
 500 768.75 l 1
 437.5 768.75 l 2
 437.5 727.083007812 437.5 685.416992188 437.5 643.75 c 2
 375 643.75 l 1
 375 456.25 l 1
 437.5 456.25 l 1
 437.5 518.75 l 1
EndSplineSet
EndChar

StartChar: Agrave
Encoding: 192 192 99
Width: 1000
Flags: H
LayerCount: 2
Fore
SplineSet
187.5 -43.75 m 1
 187.5 -106.25 l 1
 312.5 -106.25 l 1
 312.5 -64.5830078125 312.5 -22.9169921875 312.5 18.75 c 1
 625 18.75 l 1
 625 -43.75 l 1
 687.5 -43.75 l 1
 687.5 -106.25 l 1
 750 -106.25 l 1
 750 -64.5830078125 750 -22.9169921875 750 18.75 c 2
 687.5 18.75 l 1
 687.5 206.25 l 1
 625 206.25 l 1
 625 268.75 l 1
 562.5 268.75 l 1
 562.5 310.416992188 562.5 352.083007812 562.5 393.75 c 1
 375 393.75 l 2
 375 352.083007812 375 310.416992188 375 268.75 c 2
 312.5 268.75 l 2
 312.5 227.083007812 312.5 185.416992188 312.5 143.75 c 2
 250 143.75 l 1
 250 -43.75 l 1
 187.5 -43.75 l 1
562.5 81.25 m 1
 375 81.25 l 2
 375 122.916992188 375 164.583007812 375 206.25 c 1
 437.5 206.25 l 1
 437.5 268.75 l 1
 500 268.75 l 1
 500 206.25 l 1
 562.5 206.25 l 2
 562.5 164.583007812 562.5 122.916992188 562.5 81.25 c 1
562.5 581.25 m 1
 562.5 768.75 l 1
 500 768.75 l 1
 500 831.25 l 1
 437.5 831.25 l 1
 437.5 643.75 l 1
 500 643.75 l 2
 500 602.083007812 500 560.416992188 500 518.75 c 2
 625 518.75 l 1
 625 581.25 l 1
 562.5 581.25 l 1
EndSplineSet
EndChar

StartChar: Aacute
Encoding: 193 193 100
Width: 1000
Flags: H
LayerCount: 2
Fore
SplineSet
750 -106.25 m 1
 750 -64.5830078125 750 -22.9169921875 750 18.75 c 2
 687.5 18.75 l 1
 687.5 206.25 l 1
 625 206.25 l 2
 625 247.916992188 625 289.583007812 625 331.25 c 2
 562.5 331.25 l 1
 562.5 393.75 l 1
 500 393.75 l 1
 500 456.25 l 1
 437.5 456.25 l 1
 437.5 393.75 l 1
 375 393.75 l 2
 375 352.083007812 375 310.416992188 375 268.75 c 2
 312.5 268.75 l 2
 312.5 227.083007812 312.5 185.416992188 312.5 143.75 c 2
 250 143.75 l 1
 250 102.083007812 250 60.4169921875 250 18.75 c 1
 187.5 18.75 l 2
 187.5 -22.9169921875 187.5 -64.5830078125 187.5 -106.25 c 1
 312.5 -106.25 l 1
 312.5 -64.5830078125 312.5 -22.9169921875 312.5 18.75 c 1
 625 18.75 l 1
 625 -43.75 l 1
 687.5 -43.75 l 1
 687.5 -106.25 l 1
 750 -106.25 l 1
562.5 81.25 m 1
 375 81.25 l 2
 375 122.916992188 375 164.583007812 375 206.25 c 1
 437.5 206.25 l 1
 437.5 268.75 l 1
 500 268.75 l 1
 500 206.25 l 1
 562.5 206.25 l 2
 562.5 164.583007812 562.5 122.916992188 562.5 81.25 c 1
500 518.75 m 2
 500 560.416992188 500 602.083007812 500 643.75 c 2
 562.5 643.75 l 1
 562.5 831.25 l 1
 500 831.25 l 1
 500 768.75 l 1
 437.5 768.75 l 2
 437.5 727.083007812 437.5 685.416992188 437.5 643.75 c 2
 375 643.75 l 2
 375 602.083007812 375 560.416992188 375 518.75 c 1
 500 518.75 l 2
EndSplineSet
EndChar

StartChar: Acircumflex
Encoding: 194 194 101
Width: 1000
Flags: H
LayerCount: 2
Fore
SplineSet
187.5 581.25 m 1
 187.5 518.75 l 1
 312.5 518.75 l 1
 312.5 581.25 l 1
 375 581.25 l 1
 375 643.75 l 1
 500 643.75 l 1
 500 581.25 l 1
 562.5 581.25 l 1
 562.5 518.75 l 1
 687.5 518.75 l 1
 687.5 581.25 l 1
 625 581.25 l 1
 625 643.75 l 1
 562.5 643.75 l 1
 562.5 706.25 l 1
 500 706.25 l 1
 500 768.75 l 1
 375 768.75 l 1
 375 706.25 l 1
 312.5 706.25 l 1
 312.5 643.75 l 1
 250 643.75 l 1
 250 581.25 l 1
 187.5 581.25 l 1
750 -106.25 m 1
 750 -64.5830078125 750 -22.9169921875 750 18.75 c 2
 687.5 18.75 l 1
 687.5 206.25 l 1
 625 206.25 l 2
 625 247.916992188 625 289.583007812 625 331.25 c 2
 562.5 331.25 l 1
 562.5 393.75 l 1
 500 393.75 l 1
 500 456.25 l 1
 437.5 456.25 l 1
 437.5 393.75 l 1
 375 393.75 l 2
 375 352.083007812 375 310.416992188 375 268.75 c 2
 312.5 268.75 l 2
 312.5 227.083007812 312.5 185.416992188 312.5 143.75 c 2
 250 143.75 l 1
 250 102.083007812 250 60.4169921875 250 18.75 c 1
 187.5 18.75 l 2
 187.5 -22.9169921875 187.5 -64.5830078125 187.5 -106.25 c 1
 312.5 -106.25 l 1
 312.5 -64.5830078125 312.5 -22.9169921875 312.5 18.75 c 1
 625 18.75 l 1
 625 -43.75 l 1
 687.5 -43.75 l 1
 687.5 -106.25 l 1
 750 -106.25 l 1
562.5 81.25 m 1
 375 81.25 l 2
 375 122.916992188 375 164.583007812 375 206.25 c 1
 437.5 206.25 l 1
 437.5 268.75 l 1
 500 268.75 l 1
 500 206.25 l 1
 562.5 206.25 l 2
 562.5 164.583007812 562.5 122.916992188 562.5 81.25 c 1
EndSplineSet
EndChar

StartChar: Atilde
Encoding: 195 195 102
Width: 1000
Flags: H
LayerCount: 2
Fore
SplineSet
187.5 643.75 m 1
 187.5 581.25 l 1
 312.5 581.25 l 1
 312.5 643.75 l 1
 437.5 643.75 l 1
 437.5 581.25 l 1
 562.5 581.25 l 1
 562.5 518.75 l 1
 625 518.75 l 1
 625 581.25 l 1
 687.5 581.25 l 1
 687.5 643.75 l 1
 750 643.75 l 1
 750 706.25 l 1
 625 706.25 l 1
 625 643.75 l 1
 500 643.75 l 1
 500 706.25 l 1
 375 706.25 l 1
 375 768.75 l 1
 312.5 768.75 l 1
 312.5 706.25 l 1
 250 706.25 l 1
 250 643.75 l 1
 187.5 643.75 l 1
750 -106.25 m 1
 750 -64.5830078125 750 -22.9169921875 750 18.75 c 2
 687.5 18.75 l 1
 687.5 206.25 l 1
 625 206.25 l 2
 625 247.916992188 625 289.583007812 625 331.25 c 2
 562.5 331.25 l 1
 562.5 393.75 l 1
 500 393.75 l 1
 500 456.25 l 1
 437.5 456.25 l 1
 437.5 393.75 l 1
 375 393.75 l 2
 375 352.083007812 375 310.416992188 375 268.75 c 2
 312.5 268.75 l 2
 312.5 227.083007812 312.5 185.416992188 312.5 143.75 c 2
 250 143.75 l 1
 250 102.083007812 250 60.4169921875 250 18.75 c 1
 187.5 18.75 l 2
 187.5 -22.9169921875 187.5 -64.5830078125 187.5 -106.25 c 1
 312.5 -106.25 l 1
 312.5 -64.5830078125 312.5 -22.9169921875 312.5 18.75 c 1
 625 18.75 l 1
 625 -43.75 l 1
 687.5 -43.75 l 1
 687.5 -106.25 l 1
 750 -106.25 l 1
562.5 81.25 m 1
 375 81.25 l 2
 375 122.916992188 375 164.583007812 375 206.25 c 1
 437.5 206.25 l 1
 437.5 268.75 l 1
 500 268.75 l 1
 500 206.25 l 1
 562.5 206.25 l 2
 562.5 164.583007812 562.5 122.916992188 562.5 81.25 c 1
EndSplineSet
EndChar

StartChar: Ccedilla
Encoding: 199 199 103
Width: 1000
Flags: H
LayerCount: 2
Fore
SplineSet
500 -168.75 m 2
 500 -127.083007812 500 -85.4169921875 500 -43.75 c 2
 562.5 -43.75 l 2
 562.5 -2.0830078125 562.5 39.5830078125 562.5 81.25 c 1
 500 81.25 l 1
 500 18.75 l 1
 437.5 18.75 l 1
 437.5 -43.75 l 1
 375 -43.75 l 2
 375 -85.4169921875 375 -127.083007812 375 -168.75 c 1
 500 -168.75 l 2
750 206.25 m 1
 812.5 206.25 l 1
 812.5 247.916992188 812.5 289.583007812 812.5 331.25 c 2
 750 331.25 l 1
 750 268.75 l 1
 687.5 268.75 l 1
 687.5 206.25 l 1
 437.5 206.25 l 1
 437.5 268.75 l 1
 375 268.75 l 1
 375 331.25 l 1
 312.5 331.25 l 1
 312.5 414.583007812 312.5 497.916992188 312.5 581.25 c 1
 375 581.25 l 1
 375 643.75 l 1
 500 643.75 l 1
 500 706.25 l 1
 687.5 706.25 l 2
 687.5 664.583007812 687.5 622.916992188 687.5 581.25 c 2
 812.5 581.25 l 1
 812.5 622.916992188 812.5 664.583007812 812.5 706.25 c 2
 687.5 706.25 l 1
 687.5 768.75 l 1
 375 768.75 l 1
 375 706.25 l 1
 250 706.25 l 1
 250 664.583007812 250 622.916992188 250 581.25 c 1
 187.5 581.25 l 1
 187.5 497.916992188 187.5 414.583007812 187.5 331.25 c 1
 250 331.25 l 2
 250 289.583007812 250 247.916992188 250 206.25 c 2
 375 206.25 l 1
 375 143.75 l 1
 750 143.75 l 1
 750 206.25 l 1
EndSplineSet
EndChar

StartChar: Egrave
Encoding: 200 200 104
Width: 1000
Flags: H
LayerCount: 2
Fore
SplineSet
375 -43.75 m 1
 375 18.75 l 1
 312.5 18.75 l 1
 312.5 81.25 l 1
 687.5 81.25 l 2
 687.5 122.916992188 687.5 164.583007812 687.5 206.25 c 1
 312.5 206.25 l 2
 312.5 247.916992188 312.5 289.583007812 312.5 331.25 c 1
 687.5 331.25 l 1
 687.5 393.75 l 1
 250 393.75 l 1
 250 227.083007812 250 60.4169921875 250 -106.25 c 1
 687.5 -106.25 l 1
 687.5 -43.75 l 1
 375 -43.75 l 1
625 456.25 m 1
 625 643.75 l 1
 562.5 643.75 l 1
 562.5 685.416992188 562.5 727.083007812 562.5 768.75 c 1
 500 768.75 l 1
 500 831.25 l 1
 437.5 831.25 l 1
 437.5 643.75 l 1
 500 643.75 l 2
 500 602.083007812 500 560.416992188 500 518.75 c 2
 562.5 518.75 l 1
 562.5 456.25 l 1
 625 456.25 l 1
EndSplineSet
EndChar

StartChar: Eacute
Encoding: 201 201 105
Width: 1000
Flags: H
LayerCount: 2
Fore
SplineSet
375 -43.75 m 1
 375 18.75 l 1
 312.5 18.75 l 1
 312.5 81.25 l 1
 750 81.25 l 1
 750 122.916992188 750 164.583007812 750 206.25 c 2
 312.5 206.25 l 2
 312.5 247.916992188 312.5 289.583007812 312.5 331.25 c 1
 750 331.25 l 1
 750 393.75 l 1
 250 393.75 l 1
 250 227.083007812 250 60.4169921875 250 -106.25 c 1
 750 -106.25 l 1
 750 -43.75 l 1
 375 -43.75 l 1
500 518.75 m 2
 500 560.416992188 500 602.083007812 500 643.75 c 2
 562.5 643.75 l 1
 562.5 831.25 l 1
 500 831.25 l 1
 500 768.75 l 1
 437.5 768.75 l 2
 437.5 727.083007812 437.5 685.416992188 437.5 643.75 c 2
 375 643.75 l 2
 375 602.083007812 375 560.416992188 375 518.75 c 1
 500 518.75 l 2
EndSplineSet
EndChar

StartChar: Ecircumflex
Encoding: 202 202 106
Width: 1000
Flags: H
LayerCount: 2
Fore
SplineSet
187.5 581.25 m 1
 187.5 518.75 l 1
 312.5 518.75 l 1
 312.5 581.25 l 1
 375 581.25 l 1
 375 643.75 l 1
 500 643.75 l 1
 500 581.25 l 1
 562.5 581.25 l 1
 562.5 518.75 l 1
 687.5 518.75 l 1
 687.5 581.25 l 1
 625 581.25 l 1
 625 643.75 l 1
 562.5 643.75 l 1
 562.5 706.25 l 1
 500 706.25 l 1
 500 768.75 l 1
 375 768.75 l 1
 375 706.25 l 1
 312.5 706.25 l 1
 312.5 643.75 l 1
 250 643.75 l 1
 250 581.25 l 1
 187.5 581.25 l 1
375 -43.75 m 1
 375 18.75 l 1
 312.5 18.75 l 1
 312.5 81.25 l 1
 687.5 81.25 l 2
 687.5 122.916992188 687.5 164.583007812 687.5 206.25 c 1
 312.5 206.25 l 2
 312.5 247.916992188 312.5 289.583007812 312.5 331.25 c 1
 687.5 331.25 l 1
 687.5 393.75 l 1
 250 393.75 l 1
 250 227.083007812 250 60.4169921875 250 -106.25 c 1
 687.5 -106.25 l 1
 687.5 -43.75 l 1
 375 -43.75 l 1
EndSplineSet
EndChar

StartChar: Igrave
Encoding: 204 204 107
Width: 1000
Flags: H
LayerCount: 2
Fore
SplineSet
312.5 -106.25 m 1
 312.5 -168.75 l 1
 562.5 -168.75 l 1
 562.5 -106.25 l 1
 500 -106.25 l 1
 500 60.4169921875 500 227.083007812 500 393.75 c 1
 562.5 393.75 l 1
 562.5 456.25 l 1
 500 456.25 l 1
 500 643.75 l 1
 437.5 643.75 l 2
 437.5 685.416992188 437.5 727.083007812 437.5 768.75 c 2
 375 768.75 l 1
 375 831.25 l 1
 312.5 831.25 l 1
 312.5 747.916992188 312.5 664.583007812 312.5 581.25 c 1
 375 581.25 l 1
 375 518.75 l 1
 437.5 518.75 l 1
 437.5 456.25 l 1
 312.5 456.25 l 1
 312.5 393.75 l 1
 375 393.75 l 1
 375 227.083007812 375 60.4169921875 375 -106.25 c 1
 312.5 -106.25 l 1
EndSplineSet
EndChar

StartChar: Iacute
Encoding: 205 205 108
Width: 1000
Flags: H
LayerCount: 2
Fore
SplineSet
562.5 -168.75 m 2
 562.5 -127.083007812 562.5 -85.4169921875 562.5 -43.75 c 1
 500 -43.75 l 1
 500 393.75 l 1
 562.5 393.75 l 2
 562.5 435.416992188 562.5 477.083007812 562.5 518.75 c 1
 500 518.75 l 1
 500 581.25 l 1
 562.5 581.25 l 1
 562.5 664.583007812 562.5 747.916992188 562.5 831.25 c 1
 500 831.25 l 1
 500 768.75 l 1
 437.5 768.75 l 2
 437.5 727.083007812 437.5 685.416992188 437.5 643.75 c 2
 375 643.75 l 2
 375 602.083007812 375 560.416992188 375 518.75 c 2
 312.5 518.75 l 2
 312.5 477.083007812 312.5 435.416992188 312.5 393.75 c 1
 375 393.75 l 1
 375 -43.75 l 1
 312.5 -43.75 l 2
 312.5 -85.4169921875 312.5 -127.083007812 312.5 -168.75 c 1
 562.5 -168.75 l 2
EndSplineSet
EndChar

StartChar: Ograve
Encoding: 210 210 109
Width: 1000
Flags: H
LayerCount: 2
Fore
SplineSet
687.5 -168.75 m 2
 687.5 -127.083007812 687.5 -85.4169921875 687.5 -43.75 c 2
 750 -43.75 l 1
 750 268.75 l 1
 687.5 268.75 l 1
 687.5 331.25 l 1
 625 331.25 l 1
 625 393.75 l 1
 375 393.75 l 1
 375 331.25 l 1
 250 331.25 l 1
 250 143.75 l 1
 187.5 143.75 l 2
 187.5 102.083007812 187.5 60.4169921875 187.5 18.75 c 1
 250 18.75 l 2
 250 -22.9169921875 250 -64.5830078125 250 -106.25 c 2
 375 -106.25 l 1
 375 -168.75 l 1
 687.5 -168.75 l 2
625 -43.75 m 1
 375 -43.75 l 2
 375 -2.0830078125 375 39.5830078125 375 81.25 c 2
 312.5 81.25 l 2
 312.5 122.916992188 312.5 164.583007812 312.5 206.25 c 1
 437.5 206.25 l 1
 437.5 268.75 l 1
 625 268.75 l 1
 625 206.25 l 1
 687.5 206.25 l 1
 687.5 18.75 l 1
 625 18.75 l 1
 625 -43.75 l 1
625 456.25 m 1
 625 643.75 l 1
 562.5 643.75 l 1
 562.5 685.416992188 562.5 727.083007812 562.5 768.75 c 1
 500 768.75 l 1
 500 831.25 l 1
 375 831.25 l 1
 375 643.75 l 1
 437.5 643.75 l 1
 437.5 581.25 l 1
 500 581.25 l 2
 500 539.583007812 500 497.916992188 500 456.25 c 2
 625 456.25 l 1
EndSplineSet
EndChar

StartChar: Oacute
Encoding: 211 211 110
Width: 1000
Flags: H
LayerCount: 2
Fore
SplineSet
625 -106.25 m 1
 687.5 -106.25 l 1
 687.5 -43.75 l 1
 750 -43.75 l 1
 750 268.75 l 1
 687.5 268.75 l 1
 687.5 331.25 l 1
 625 331.25 l 1
 625 393.75 l 1
 437.5 393.75 l 1
 437.5 331.25 l 1
 312.5 331.25 l 1
 312.5 268.75 l 1
 250 268.75 l 1
 250 -43.75 l 1
 312.5 -43.75 l 1
 312.5 -106.25 l 1
 437.5 -106.25 l 1
 437.5 -168.75 l 1
 625 -168.75 l 1
 625 -106.25 l 1
625 -43.75 m 1
 375 -43.75 l 2
 375 -2.0830078125 375 39.5830078125 375 81.25 c 2
 312.5 81.25 l 2
 312.5 122.916992188 312.5 164.583007812 312.5 206.25 c 1
 375 206.25 l 1
 375 268.75 l 1
 625 268.75 l 1
 625 206.25 l 1
 687.5 206.25 l 1
 687.5 18.75 l 1
 625 18.75 l 1
 625 -43.75 l 1
437.5 518.75 m 1
 500 518.75 l 2
 500 560.416992188 500 602.083007812 500 643.75 c 2
 562.5 643.75 l 1
 562.5 831.25 l 1
 500 831.25 l 1
 500 768.75 l 1
 437.5 768.75 l 2
 437.5 727.083007812 437.5 685.416992188 437.5 643.75 c 2
 375 643.75 l 1
 375 456.25 l 1
 437.5 456.25 l 1
 437.5 518.75 l 1
EndSplineSet
EndChar

StartChar: Ocircumflex
Encoding: 212 212 111
Width: 1000
Flags: H
LayerCount: 2
Fore
SplineSet
250 581.25 m 1
 250 518.75 l 1
 375 518.75 l 1
 375 581.25 l 1
 437.5 581.25 l 1
 437.5 643.75 l 1
 562.5 643.75 l 1
 562.5 581.25 l 1
 625 581.25 l 1
 625 518.75 l 1
 750 518.75 l 1
 750 581.25 l 1
 687.5 581.25 l 1
 687.5 643.75 l 1
 625 643.75 l 1
 625 706.25 l 1
 562.5 706.25 l 1
 562.5 768.75 l 1
 437.5 768.75 l 1
 437.5 706.25 l 1
 375 706.25 l 1
 375 643.75 l 1
 312.5 643.75 l 1
 312.5 581.25 l 1
 250 581.25 l 1
687.5 -168.75 m 2
 687.5 -127.083007812 687.5 -85.4169921875 687.5 -43.75 c 2
 750 -43.75 l 1
 750 268.75 l 1
 687.5 268.75 l 1
 687.5 331.25 l 1
 625 331.25 l 1
 625 393.75 l 1
 375 393.75 l 1
 375 331.25 l 1
 250 331.25 l 1
 250 143.75 l 1
 187.5 143.75 l 2
 187.5 102.083007812 187.5 60.4169921875 187.5 18.75 c 1
 250 18.75 l 2
 250 -22.9169921875 250 -64.5830078125 250 -106.25 c 2
 375 -106.25 l 1
 375 -168.75 l 1
 687.5 -168.75 l 2
625 -43.75 m 1
 375 -43.75 l 2
 375 -2.0830078125 375 39.5830078125 375 81.25 c 2
 312.5 81.25 l 2
 312.5 122.916992188 312.5 164.583007812 312.5 206.25 c 1
 437.5 206.25 l 1
 437.5 268.75 l 1
 625 268.75 l 1
 625 206.25 l 1
 687.5 206.25 l 1
 687.5 18.75 l 1
 625 18.75 l 1
 625 -43.75 l 1
EndSplineSet
EndChar

StartChar: Ugrave
Encoding: 217 217 112
Width: 1000
Flags: H
LayerCount: 2
Fore
SplineSet
375 831.25 m 1
 375 768.75 l 1
 437.5 768.75 l 1
 437.5 727.083007812 437.5 685.416992188 437.5 643.75 c 1
 500 643.75 l 2
 500 602.083007812 500 560.416992188 500 518.75 c 2
 562.5 518.75 l 1
 562.5 602.083007812 562.5 685.416992188 562.5 768.75 c 1
 500 768.75 l 1
 500 831.25 l 1
 375 831.25 l 1
562.5 -43.75 m 1
 687.5 -43.75 l 2
 687.5 -2.0830078125 687.5 39.5830078125 687.5 81.25 c 2
 750 81.25 l 1
 750 518.75 l 1
 625 518.75 l 1
 625 81.25 l 1
 562.5 81.25 l 1
 562.5 18.75 l 1
 312.5 18.75 l 1
 312.5 185.416992188 312.5 352.083007812 312.5 518.75 c 1
 187.5 518.75 l 1
 187.5 352.083007812 187.5 185.416992188 187.5 18.75 c 1
 250 18.75 l 1
 250 -43.75 l 1
 312.5 -43.75 l 1
 312.5 -106.25 l 1
 562.5 -106.25 l 1
 562.5 -43.75 l 1
EndSplineSet
EndChar

StartChar: Uacute
Encoding: 218 218 113
Width: 1000
Flags: H
LayerCount: 2
Fore
SplineSet
562.5 -43.75 m 1
 687.5 -43.75 l 2
 687.5 -2.0830078125 687.5 39.5830078125 687.5 81.25 c 2
 750 81.25 l 1
 750 518.75 l 1
 625 518.75 l 1
 625 81.25 l 1
 562.5 81.25 l 1
 562.5 18.75 l 1
 312.5 18.75 l 1
 312.5 185.416992188 312.5 352.083007812 312.5 518.75 c 1
 187.5 518.75 l 1
 187.5 352.083007812 187.5 185.416992188 187.5 18.75 c 1
 250 18.75 l 1
 250 -43.75 l 1
 312.5 -43.75 l 1
 312.5 -106.25 l 1
 562.5 -106.25 l 1
 562.5 -43.75 l 1
437.5 518.75 m 1
 500 518.75 l 2
 500 560.416992188 500 602.083007812 500 643.75 c 2
 562.5 643.75 l 1
 562.5 831.25 l 1
 500 831.25 l 1
 500 768.75 l 1
 437.5 768.75 l 2
 437.5 727.083007812 437.5 685.416992188 437.5 643.75 c 2
 375 643.75 l 1
 375 456.25 l 1
 437.5 456.25 l 1
 437.5 518.75 l 1
EndSplineSet
EndChar

StartChar: backslash
Encoding: 92 92 114
Width: 1000
Flags: H
LayerCount: 2
Fore
SplineSet
750 -106.25 m 1
 750 -64.5830078125 750 -22.9169921875 750 18.75 c 2
 687.5 18.75 l 1
 687.5 60.4169921875 687.5 102.083007812 687.5 143.75 c 1
 625 143.75 l 1
 625 206.25 l 1
 562.5 206.25 l 1
 562.5 247.916992188 562.5 289.583007812 562.5 331.25 c 1
 500 331.25 l 1
 500 372.916992188 500 414.583007812 500 456.25 c 1
 437.5 456.25 l 1
 437.5 518.75 l 1
 375 518.75 l 1
 375 581.25 l 1
 312.5 581.25 l 2
 312.5 622.916992188 312.5 664.583007812 312.5 706.25 c 2
 250 706.25 l 1
 250 768.75 l 1
 187.5 768.75 l 1
 187.5 581.25 l 1
 250 581.25 l 1
 250 518.75 l 1
 312.5 518.75 l 1
 312.5 477.083007812 312.5 435.416992188 312.5 393.75 c 1
 375 393.75 l 1
 375 331.25 l 1
 437.5 331.25 l 1
 437.5 289.583007812 437.5 247.916992188 437.5 206.25 c 1
 500 206.25 l 1
 500 143.75 l 1
 562.5 143.75 l 2
 562.5 102.083007812 562.5 60.4169921875 562.5 18.75 c 2
 625 18.75 l 1
 625 -43.75 l 1
 687.5 -43.75 l 1
 687.5 -106.25 l 1
 750 -106.25 l 1
EndSplineSet
EndChar

StartChar: at
Encoding: 64 64 115
Width: 1000
Flags: H
LayerCount: 2
Fore
SplineSet
437.5 518.75 m 1
 437.5 456.25 l 1
 687.5 456.25 l 1
 687.5 393.75 l 1
 500 393.75 l 1
 500 331.25 l 1
 437.5 331.25 l 1
 437.5 143.75 l 1
 312.5 143.75 l 1
 312.5 268.75 312.5 393.75 312.5 518.75 c 1
 375 518.75 l 1
 375 581.25 l 1
 562.5 581.25 l 1
 562.5 518.75 l 1
 437.5 518.75 l 1
750 -43.75 m 1
 750 -2.0830078125 750 39.5830078125 750 81.25 c 2
 437.5 81.25 l 1
 437.5 143.75 l 1
 875 143.75 l 1
 875 581.25 l 1
 812.5 581.25 l 1
 812.5 643.75 l 1
 687.5 643.75 l 1
 687.5 706.25 l 1
 375 706.25 l 1
 375 643.75 l 1
 250 643.75 l 1
 250 602.083007812 250 560.416992188 250 518.75 c 1
 187.5 518.75 l 2
 187.5 477.083007812 187.5 435.416992188 187.5 393.75 c 2
 125 393.75 l 1
 125 352.083007812 125 310.416992188 125 268.75 c 2
 187.5 268.75 l 1
 187.5 81.25 l 1
 250 81.25 l 1
 250 18.75 l 1
 375 18.75 l 1
 375 -43.75 l 1
 750 -43.75 l 1
750 206.25 m 1
 500 206.25 l 1
 500 268.75 l 1
 750 268.75 l 1
 750 206.25 l 1
EndSplineSet
EndChar

StartChar: exclamdown
Encoding: 161 161 116
Width: 1000
Flags: H
LayerCount: 2
Fore
SplineSet
562.5 -43.75 m 1
 562.5 518.75 l 1
 437.5 518.75 l 1
 437.5 -43.75 l 1
 562.5 -43.75 l 1
562.5 581.25 m 2
 562.5 622.916992188 562.5 664.583007812 562.5 706.25 c 1
 437.5 706.25 l 2
 437.5 664.583007812 437.5 622.916992188 437.5 581.25 c 1
 562.5 581.25 l 2
EndSplineSet
EndChar

StartChar: questiondown
Encoding: 191 191 117
Width: 1000
Flags: H
LayerCount: 2
Fore
SplineSet
625 18.75 m 1
 750 18.75 l 1
 750 206.25 l 1
 687.5 206.25 l 1
 687.5 143.75 l 1
 625 143.75 l 1
 625 81.25 l 1
 375 81.25 l 1
 375 268.75 l 1
 500 268.75 l 1
 500 331.25 l 1
 562.5 331.25 l 1
 562.5 518.75 l 1
 437.5 518.75 l 2
 437.5 477.083007812 437.5 435.416992188 437.5 393.75 c 2
 375 393.75 l 1
 375 331.25 l 1
 312.5 331.25 l 1
 312.5 268.75 l 1
 250 268.75 l 1
 250 81.25 l 1
 312.5 81.25 l 1
 312.5 18.75 l 1
 375 18.75 l 1
 375 -43.75 l 1
 625 -43.75 l 1
 625 18.75 l 1
562.5 581.25 m 2
 562.5 622.916992188 562.5 664.583007812 562.5 706.25 c 1
 437.5 706.25 l 2
 437.5 664.583007812 437.5 622.916992188 437.5 581.25 c 1
 562.5 581.25 l 2
EndSplineSet
EndChar

StartChar: asciicircum
Encoding: 94 94 118
Width: 1000
Flags: H
LayerCount: 2
Fore
SplineSet
250 331.25 m 1
 250 268.75 l 1
 375 268.75 l 1
 375 331.25 l 1
 437.5 331.25 l 1
 437.5 393.75 l 1
 562.5 393.75 l 1
 562.5 331.25 l 1
 625 331.25 l 1
 625 268.75 l 1
 750 268.75 l 1
 750 331.25 l 1
 687.5 331.25 l 1
 687.5 393.75 l 1
 625 393.75 l 1
 625 456.25 l 1
 562.5 456.25 l 1
 562.5 518.75 l 1
 437.5 518.75 l 1
 437.5 456.25 l 1
 375 456.25 l 1
 375 393.75 l 1
 312.5 393.75 l 1
 312.5 331.25 l 1
 250 331.25 l 1
EndSplineSet
EndChar

StartChar: underscore
Encoding: 95 95 119
Width: 1000
Flags: H
LayerCount: 2
Fore
SplineSet
812.5 -106.25 m 1
 812.5 -64.5830078125 812.5 -22.9169921875 812.5 18.75 c 2
 187.5 18.75 l 2
 187.5 -22.9169921875 187.5 -64.5830078125 187.5 -106.25 c 1
 812.5 -106.25 l 1
EndSplineSet
EndChar

StartChar: bar
Encoding: 124 124 120
Width: 1000
Flags: H
LayerCount: 2
Fore
SplineSet
562.5 -43.75 m 1
 562.5 206.25 562.5 456.25 562.5 706.25 c 1
 437.5 706.25 l 1
 437.5 456.25 437.5 206.25 437.5 -43.75 c 1
 562.5 -43.75 l 1
EndSplineSet
EndChar

StartChar: grave
Encoding: 96 96 121
Width: 1000
Flags: H
LayerCount: 2
Fore
SplineSet
562.5 581.25 m 1
 562.5 768.75 l 1
 437.5 768.75 l 2
 437.5 727.083007812 437.5 685.416992188 437.5 643.75 c 1
 500 643.75 l 2
 500 602.083007812 500 560.416992188 500 518.75 c 2
 625 518.75 l 1
 625 581.25 l 1
 562.5 581.25 l 1
EndSplineSet
EndChar

StartChar: acute
Encoding: 180 180 122
Width: 1000
Flags: H
LayerCount: 2
Fore
SplineSet
375 581.25 m 1
 375 518.75 l 1
 500 518.75 l 2
 500 560.416992188 500 602.083007812 500 643.75 c 2
 562.5 643.75 l 2
 562.5 685.416992188 562.5 727.083007812 562.5 768.75 c 1
 437.5 768.75 l 1
 437.5 581.25 l 1
 375 581.25 l 1
EndSplineSet
EndChar

StartChar: ntilde
Encoding: 241 241 123
Width: 1000
Flags: H
LayerCount: 2
Fore
SplineSet
187.5 643.75 m 1
 187.5 581.25 l 1
 312.5 581.25 l 1
 312.5 643.75 l 1
 437.5 643.75 l 1
 437.5 581.25 l 1
 562.5 581.25 l 1
 562.5 518.75 l 1
 625 518.75 l 1
 625 581.25 l 1
 687.5 581.25 l 1
 687.5 643.75 l 1
 750 643.75 l 1
 750 706.25 l 1
 625 706.25 l 1
 625 643.75 l 1
 500 643.75 l 1
 500 706.25 l 1
 375 706.25 l 1
 375 768.75 l 1
 312.5 768.75 l 1
 312.5 706.25 l 1
 250 706.25 l 1
 250 643.75 l 1
 187.5 643.75 l 1
750 -106.25 m 1
 750 331.25 l 1
 687.5 331.25 l 1
 687.5 393.75 l 1
 625 393.75 l 1
 625 456.25 l 1
 375 456.25 l 1
 375 393.75 l 1
 312.5 393.75 l 1
 312.5 456.25 l 1
 187.5 456.25 l 1
 187.5 -106.25 l 1
 312.5 -106.25 l 1
 312.5 18.75 312.5 143.75 312.5 268.75 c 1
 375 268.75 l 1
 375 331.25 l 1
 562.5 331.25 l 1
 562.5 268.75 l 1
 625 268.75 l 1
 625 143.75 625 18.75 625 -106.25 c 1
 750 -106.25 l 1
EndSplineSet
EndChar

StartChar: Ntilde
Encoding: 209 209 124
Width: 1000
Flags: H
LayerCount: 2
Fore
SplineSet
187.5 706.25 m 1
 187.5 643.75 l 1
 312.5 643.75 l 1
 312.5 706.25 l 1
 437.5 706.25 l 1
 437.5 643.75 l 1
 562.5 643.75 l 1
 562.5 581.25 l 1
 625 581.25 l 1
 625 643.75 l 1
 687.5 643.75 l 1
 687.5 706.25 l 1
 750 706.25 l 1
 750 768.75 l 1
 625 768.75 l 1
 625 706.25 l 1
 500 706.25 l 1
 500 768.75 l 1
 375 768.75 l 1
 375 831.25 l 1
 312.5 831.25 l 1
 312.5 768.75 l 1
 250 768.75 l 1
 250 706.25 l 1
 187.5 706.25 l 1
812.5 -168.75 m 1
 812.5 81.25 812.5 331.25 812.5 581.25 c 1
 687.5 581.25 l 1
 687.5 414.583007812 687.5 247.916992188 687.5 81.25 c 1
 625 81.25 l 1
 625 143.75 l 1
 562.5 143.75 l 1
 562.5 206.25 l 1
 500 206.25 l 1
 500 268.75 l 1
 437.5 268.75 l 1
 437.5 331.25 l 1
 375 331.25 l 2
 375 372.916992188 375 414.583007812 375 456.25 c 2
 312.5 456.25 l 1
 312.5 518.75 l 1
 250 518.75 l 1
 250 581.25 l 1
 125 581.25 l 1
 125 331.25 125 81.25 125 -168.75 c 1
 250 -168.75 l 1
 250 268.75 l 1
 375 268.75 l 1
 375 227.083007812 375 185.416992188 375 143.75 c 1
 437.5 143.75 l 1
 437.5 81.25 l 1
 500 81.25 l 1
 500 18.75 l 1
 562.5 18.75 l 1
 562.5 -43.75 l 1
 625 -43.75 l 1
 625 -85.4169921875 625 -127.083007812 625 -168.75 c 1
 812.5 -168.75 l 1
EndSplineSet
EndChar

StartChar: bracketleft
Encoding: 91 91 125
Width: 1000
Flags: H
LayerCount: 2
Fore
SplineSet
625 -168.75 m 1
 625 -127.083007812 625 -85.4169921875 625 -43.75 c 2
 500 -43.75 l 1
 500 206.25 500 456.25 500 706.25 c 1
 625 706.25 l 1
 625 747.916992188 625 789.583007812 625 831.25 c 2
 375 831.25 l 1
 375 497.916992188 375 164.583007812 375 -168.75 c 1
 625 -168.75 l 1
EndSplineSet
EndChar

StartChar: bracketright
Encoding: 93 93 126
Width: 1000
Flags: H
LayerCount: 2
Fore
SplineSet
625 -168.75 m 1
 625 164.583007812 625 497.916992188 625 831.25 c 1
 375 831.25 l 2
 375 789.583007812 375 747.916992188 375 706.25 c 1
 500 706.25 l 1
 500 456.25 500 206.25 500 -43.75 c 1
 375 -43.75 l 2
 375 -85.4169921875 375 -127.083007812 375 -168.75 c 1
 625 -168.75 l 1
EndSplineSet
EndChar
